<svg width="20.000000" height="20.000000" viewBox="0 0 20 20" fill="none" xmlns="http://www.w3.org/2000/svg" xmlns:xlink="http://www.w3.org/1999/xlink">
	<desc>
			Created with Pixso.
	</desc>
	<defs/>
	<rect id="Rectangle 2" width="20.000000" height="20.000000" fill="#FFFFFF" fill-opacity="0.344828"/>
	<g style="mix-blend-mode:normal">
		<path id="패스 11454" d="M12.32 10L7.98 5.66C7.61 5.29 7.02 5.29 6.66 5.66C6.29 6.02 6.29 6.61 6.66 6.98L11 11.32C11.36 11.68 11.95 11.68 12.32 11.32C12.68 10.95 12.68 10.36 12.32 10Z" fill="#898989" fill-opacity="1.000000" fill-rule="nonzero"/>
		<path id="패스 11454" d="" fill="#707070" fill-opacity="0" fill-rule="evenodd"/>
	</g>
	<g style="mix-blend-mode:normal">
		<path id="패스 11455" d="M11 10.03L6.66 14.37C6.29 14.73 6.29 15.32 6.66 15.69C7.02 16.05 7.62 16.05 7.98 15.69L12.32 11.35C12.69 10.98 12.69 10.39 12.32 10.03C11.96 9.66 11.36 9.66 11 10.03Z" fill="#898989" fill-opacity="1.000000" fill-rule="nonzero"/>
		<path id="패스 11455" d="" fill="#707070" fill-opacity="0" fill-rule="evenodd"/>
	</g>
</svg>
