<svg xmlns="http://www.w3.org/2000/svg" width="17.298" height="17.298" viewBox="0 0 17.298 17.298">
  <g id="그룹_13395" data-name="그룹 13395" transform="translate(-881.329 -1991.221)">
    <rect id="사각형_4002" data-name="사각형 4002" width="17.298" height="17.298" transform="translate(881.329 1991.221)" fill="none"/>
    <rect id="사각형_3995" data-name="사각형 3995" width="3.492" height="1.987" transform="translate(886.693 1994.93)" fill="#579ee5"/>
    <rect id="사각형_3997" data-name="사각형 3997" width="3.493" height="1.987" transform="translate(883.2 1994.93)" fill="#579ee5"/>
    <path id="패스_10723" data-name="패스 10723" d="M16.783,5l-1.39,1.746H4v5.239H15.726L19.8,5Z" transform="translate(878.385 1992.207)" fill="#333"/>
    <path id="패스_10724" data-name="패스 10724" d="M15.243,12.582A1.831,1.831,0,0,1,14.071,12a1.831,1.831,0,0,1-1.173.582A1.831,1.831,0,0,1,11.726,12a1.831,1.831,0,0,1-1.173.582A1.831,1.831,0,0,1,9.381,12a1.831,1.831,0,0,1-1.173.582A1.831,1.831,0,0,1,7.035,12a1.831,1.831,0,0,1-1.173.582A1.831,1.831,0,0,1,4.69,12a1.831,1.831,0,0,1-1.173.582A1.831,1.831,0,0,1,2.345,12a1.831,1.831,0,0,1-1.173.582A1.831,1.831,0,0,1,0,12v4.108H16.416V12a1.831,1.831,0,0,1-1.173.582" transform="translate(881.77 1988.701)" fill="#579ee5"/>
    <path id="패스_10725" data-name="패스 10725" d="M13.508,13.582A1.717,1.717,0,0,1,12.394,13a1.717,1.717,0,0,1-1.114.582A1.717,1.717,0,0,1,10.167,13a1.717,1.717,0,0,1-1.114.582A1.717,1.717,0,0,1,7.94,13a1.717,1.717,0,0,1-1.114.582A1.717,1.717,0,0,1,5.712,13a1.717,1.717,0,0,1-1.114.582A1.717,1.717,0,0,1,3.485,13a1.717,1.717,0,0,1-1.114.582A1.107,1.107,0,0,1,2,13.511v1.817H14.993l.653-1.756A1.8,1.8,0,0,1,14.622,13a1.717,1.717,0,0,1-1.114.582" transform="translate(880.826 1988.565)" fill="#82b7eb"/>
    <rect id="사각형_3998" data-name="사각형 3998" width="3.46" height="2.595" transform="translate(886.66 1996.459)" fill="#579ee5"/>
    <rect id="사각형_4000" data-name="사각형 4000" width="3.46" height="2.595" transform="translate(890.119 1996.459)" fill="#82b7eb"/>
    <rect id="사각형_4001" data-name="사각형 4001" width="3.46" height="2.595" transform="translate(883.2 1996.459)" fill="#82b7eb"/>
  </g>
</svg>
