<svg xmlns="http://www.w3.org/2000/svg" xmlns:xlink="http://www.w3.org/1999/xlink" width="21" height="21" viewBox="0 0 21 21">
  <defs>
    <clipPath id="clip-path">
      <rect id="사각형_5293" data-name="사각형 5293" width="21" height="21" transform="translate(538 963)" fill="#fff"/>
    </clipPath>
  </defs>
  <g id="마스크_그룹_9551" data-name="마스크 그룹 9551" transform="translate(-538 -963)" clip-path="url(#clip-path)">
    <path id="Icon_material-storefront" data-name="Icon material-storefront" d="M19.487,9.379l-.87-3.62A1.627,1.627,0,0,0,17.036,4.5H5.53A1.627,1.627,0,0,0,3.956,5.759l-.87,3.62A2.8,2.8,0,0,0,3.6,11.764a3.175,3.175,0,0,0,.232.24v5.749A1.662,1.662,0,0,0,5.489,19.41h11.6a1.662,1.662,0,0,0,1.657-1.657V12a3.063,3.063,0,0,0,.232-.232A2.786,2.786,0,0,0,19.487,9.379ZM17.011,6.148l.87,3.62a1.123,1.123,0,0,1-.207.969.972.972,0,0,1-.779.389,1.035,1.035,0,0,1-1-.944l-.48-4.026,1.6-.008Zm-4.9.008h1.624L14.186,9.9a1.113,1.113,0,0,1-.273.886.988.988,0,0,1-.787.34,1.054,1.054,0,0,1-1.011-1.085ZM8.379,9.9l.456-3.744h1.624v3.885A1.064,1.064,0,0,1,9.39,11.127a1,1,0,0,1-.737-.34A1.176,1.176,0,0,1,8.379,9.9ZM4.693,9.768,5.53,6.157H7.162l-.48,4.026a1.042,1.042,0,0,1-1,.944.953.953,0,0,1-.77-.389A1.1,1.1,0,0,1,4.693,9.768Zm.8,7.985V12.758a1.5,1.5,0,0,0,.191.025A2.592,2.592,0,0,0,7.535,12a2.664,2.664,0,0,0,1.913.787,2.626,2.626,0,0,0,1.847-.77,2.715,2.715,0,0,0,1.9.77A2.63,2.63,0,0,0,15.048,12a2.592,2.592,0,0,0,1.855.787,1.5,1.5,0,0,0,.191-.025v4.995Z" transform="translate(536.992 961.5)" fill="#579ee5"/>
  </g>
</svg>
