<svg width="17.283691" height="17.284180" viewBox="0 0 17.2837 17.2842" fill="none" xmlns="http://www.w3.org/2000/svg" xmlns:xlink="http://www.w3.org/1999/xlink">
	<desc>
			Created with Pixso.
	</desc>
	<defs/>
	<g style="mix-blend-mode:normal">
		<path id="Icon ion-checkmark-circle-sharp" d="M8.64 0C3.87 0 0 3.87 0 8.64C0 13.4 3.87 17.28 8.64 17.28C13.4 17.28 17.28 13.4 17.28 8.64C17.28 3.87 13.4 0 8.64 0ZM7.06 12.97L3.71 9.25L4.7 8.36L7.02 10.95L12.54 4.38L13.56 5.23L7.06 12.97Z" fill="#579EE5" fill-opacity="1.000000" fill-rule="nonzero"/>
		<path id="Icon ion-checkmark-circle-sharp" d="M0 8.64C0 13.4 3.87 17.28 8.64 17.28C13.4 17.28 17.28 13.4 17.28 8.64C17.28 3.87 13.4 0 8.64 0C3.87 0 0 3.87 0 8.64ZM3.71 9.25L4.7 8.36L7.02 10.95L12.54 4.38L13.56 5.23L7.06 12.97L3.71 9.25Z" stroke="#000000" stroke-opacity="0" stroke-width="0.070312"/>
	</g>
</svg>
