<svg xmlns="http://www.w3.org/2000/svg" width="14.619" height="14.549" viewBox="0 0 14.619 14.549">
    <g data-name="Icon akar-chat-bubble">
        <path data-name="패스 11554" d="M11.771 16.2c2.756 0 4.135 0 4.991-.857s.857-2.234.857-4.991 0-4.135-.857-4.991-2.234-.861-4.991-.861H8.848c-2.756 0-4.135 0-4.991.857S3 7.591 3 10.348s0 4.135.857 4.991a3.154 3.154 0 0 0 2.067.782" style="fill:#d8d8d8" transform="translate(-3 -4.5)"/>
        <path data-name="패스 11555" d="M15.084 27.346c-.9 0-2.641 1.016-3.55 1.488-1.46.758-2.443 1.564-2.8 1.322s.7-2.068.84-3.566l.026-.34" transform="translate(-6.313 -15.651)" style="fill:#d8d8d8"/>
    </g>
</svg>
