<svg xmlns="http://www.w3.org/2000/svg" width="33" height="33" viewBox="0 0 33 33">
  <g id="그룹_13440" data-name="그룹 13440" transform="translate(-148 -380)">
    <rect id="사각형_5271" data-name="사각형 5271" width="33" height="33" rx="5" transform="translate(148 380)" fill="#579ee5"/>
    <g id="그룹_11332" data-name="그룹 11332" transform="translate(166.38 388)">
      <path id="패스_10619" data-name="패스 10619" d="M521,511.5a3.5,3.5,0,1,1,3.5-3.5A3.5,3.5,0,0,1,521,511.5Zm0-6a2.5,2.5,0,1,0,2.5,2.5A2.5,2.5,0,0,0,521,505.5Z" transform="translate(-517.5 -504.5)" fill="#fff" stroke="#fff" stroke-width="0.5"/>
    </g>
    <g id="그룹_11340" data-name="그룹 11340" transform="translate(156 388)">
      <path id="패스_10619-2" data-name="패스 10619" d="M521,511.5a3.5,3.5,0,1,1,3.5-3.5A3.5,3.5,0,0,1,521,511.5Zm0-6a2.5,2.5,0,1,0,2.5,2.5A2.5,2.5,0,0,0,521,505.5Z" transform="translate(-517.5 -504.5)" fill="#fff" stroke="#fff" stroke-width="0.5"/>
    </g>
    <g id="그룹_11341" data-name="그룹 11341" transform="translate(166.38 397.226)">
      <path id="패스_10619-3" data-name="패스 10619" d="M521,511.5a3.5,3.5,0,1,1,3.5-3.5A3.5,3.5,0,0,1,521,511.5Zm0-6a2.5,2.5,0,1,0,2.5,2.5A2.5,2.5,0,0,0,521,505.5Z" transform="translate(-517.5 -504.5)" fill="#fff" stroke="#fff" stroke-width="0.5"/>
    </g>
    <g id="그룹_11342" data-name="그룹 11342" transform="translate(156 397.226)">
      <path id="패스_10619-4" data-name="패스 10619" d="M521,511.5a3.5,3.5,0,1,1,3.5-3.5A3.5,3.5,0,0,1,521,511.5Zm0-6a2.5,2.5,0,1,0,2.5,2.5A2.5,2.5,0,0,0,521,505.5Z" transform="translate(-517.5 -504.5)" fill="#fff" stroke="#fff" stroke-width="0.5"/>
    </g>
    <rect id="사각형_3909" data-name="사각형 3909" width="21" height="21" transform="translate(154 386)" fill="none"/>
  </g>
</svg>
