<svg xmlns="http://www.w3.org/2000/svg" xmlns:xlink="http://www.w3.org/1999/xlink" width="24" height="24" viewBox="0 0 24 24">
  <defs>
    <clipPath id="clip-path">
      <circle id="타원_376" data-name="타원 376" cx="12" cy="12" r="12" transform="translate(0.186)" fill="none"/>
    </clipPath>
    <radialGradient id="radial-gradient" cx="0.266" cy="1.077" r="0.991" gradientUnits="objectBoundingBox">
      <stop offset="0" stop-color="#fd5"/>
      <stop offset="0.1" stop-color="#fd5"/>
      <stop offset="0.5" stop-color="#ff543e"/>
      <stop offset="1" stop-color="#c837ab"/>
    </radialGradient>
    <radialGradient id="radial-gradient-2" cx="-0.168" cy="0.072" r="0.443" gradientUnits="objectBoundingBox">
      <stop offset="0" stop-color="#3771c8"/>
      <stop offset="0.128" stop-color="#3771c8"/>
      <stop offset="1" stop-color="#60f" stop-opacity="0"/>
    </radialGradient>
  </defs>
  <g id="그룹_11738" data-name="그룹 11738" transform="translate(-0.186)">
    <g id="그룹_11740" data-name="그룹 11740" transform="translate(0 0)">
      <g id="그룹_11739" data-name="그룹 11739" clip-path="url(#clip-path)">
        <g id="그룹_11738-2" data-name="그룹 11738" transform="translate(0 -0.008)">
          <path id="패스_10659" data-name="패스 10659" d="M13.012,1C8,1,6.533,1.005,6.248,1.029a5.957,5.957,0,0,0-2.366.595A4.793,4.793,0,0,0,2.5,2.633a5.153,5.153,0,0,0-1.391,2.92A21.669,21.669,0,0,0,1,9.1c0,.956,0,2.214,0,3.9,0,5.009.006,6.473.03,6.758a6.031,6.031,0,0,0,.573,2.32,5.058,5.058,0,0,0,3.278,2.678,8.519,8.519,0,0,0,1.743.231c.3.013,3.328.022,6.361.022s6.065,0,6.355-.018a8.2,8.2,0,0,0,1.806-.236,5.027,5.027,0,0,0,3.278-2.684,5.932,5.932,0,0,0,.566-2.275c.016-.207.023-3.5.023-6.8S25.008,6.41,24.991,6.2a5.865,5.865,0,0,0-.578-2.3A4.759,4.759,0,0,0,23.386,2.5,5.184,5.184,0,0,0,20.463,1.11,21.639,21.639,0,0,0,16.92,1Z" transform="translate(-1.001 -1)" fill="url(#radial-gradient)"/>
          <path id="패스_10660" data-name="패스 10660" d="M13.012,1C8,1,6.533,1.005,6.248,1.029a5.957,5.957,0,0,0-2.366.595A4.793,4.793,0,0,0,2.5,2.633a5.153,5.153,0,0,0-1.391,2.92A21.669,21.669,0,0,0,1,9.1c0,.956,0,2.214,0,3.9,0,5.009.006,6.473.03,6.758a6.031,6.031,0,0,0,.573,2.32,5.058,5.058,0,0,0,3.278,2.678,8.519,8.519,0,0,0,1.743.231c.3.013,3.328.022,6.361.022s6.065,0,6.355-.018a8.2,8.2,0,0,0,1.806-.236,5.027,5.027,0,0,0,3.278-2.684,5.932,5.932,0,0,0,.566-2.275c.016-.207.023-3.5.023-6.8S25.008,6.41,24.991,6.2a5.865,5.865,0,0,0-.578-2.3A4.759,4.759,0,0,0,23.386,2.5,5.184,5.184,0,0,0,20.463,1.11,21.639,21.639,0,0,0,16.92,1Z" transform="translate(-1.001 -1)" fill="url(#radial-gradient-2)"/>
        </g>
      </g>
    </g>
    <path id="패스_10661" data-name="패스 10661" d="M-158.629,18c-1.735,0-1.953.008-2.635.039a4.689,4.689,0,0,0-1.551.3,3.129,3.129,0,0,0-1.132.737,3.136,3.136,0,0,0-.737,1.132,4.668,4.668,0,0,0-.3,1.551c-.03.682-.038.9-.038,2.635s.008,1.952.039,2.634a4.7,4.7,0,0,0,.3,1.551,3.131,3.131,0,0,0,.737,1.132,3.129,3.129,0,0,0,1.131.737,4.693,4.693,0,0,0,1.551.3c.682.031.9.039,2.634.039s1.953-.008,2.634-.039a4.7,4.7,0,0,0,1.552-.3,3.126,3.126,0,0,0,1.131-.737,3.137,3.137,0,0,0,.737-1.132,4.736,4.736,0,0,0,.3-1.551c.031-.682.039-.9.039-2.634s-.008-1.953-.039-2.635a4.733,4.733,0,0,0-.3-1.551,3.136,3.136,0,0,0-.737-1.132,3.123,3.123,0,0,0-1.131-.737,4.7,4.7,0,0,0-1.552-.3c-.682-.031-.9-.039-2.634-.039Zm-.573,1.151h.573c1.706,0,1.908.006,2.582.037a3.537,3.537,0,0,1,1.186.22,1.976,1.976,0,0,1,.734.478,1.983,1.983,0,0,1,.478.735,3.531,3.531,0,0,1,.22,1.186c.031.674.037.876.037,2.581s-.007,1.908-.037,2.581a3.534,3.534,0,0,1-.22,1.186,1.976,1.976,0,0,1-.478.734,1.976,1.976,0,0,1-.734.478,3.525,3.525,0,0,1-1.186.22c-.674.031-.876.037-2.582.037s-1.908-.007-2.582-.037a3.544,3.544,0,0,1-1.186-.22,1.979,1.979,0,0,1-.735-.478,1.981,1.981,0,0,1-.478-.734,3.531,3.531,0,0,1-.22-1.186c-.031-.674-.037-.876-.037-2.582s.006-1.908.037-2.581a3.538,3.538,0,0,1,.22-1.186,1.98,1.98,0,0,1,.478-.735,1.983,1.983,0,0,1,.735-.478,3.53,3.53,0,0,1,1.186-.22c.589-.027.818-.035,2.009-.036Zm3.984,1.061a.767.767,0,0,0-.767.766.767.767,0,0,0,.767.767.767.767,0,0,0,.767-.767.767.767,0,0,0-.767-.767Zm-3.411.9a3.281,3.281,0,0,0-3.281,3.281,3.281,3.281,0,0,0,3.281,3.281,3.28,3.28,0,0,0,3.281-3.281,3.281,3.281,0,0,0-3.281-3.281Zm0,1.151a2.13,2.13,0,0,1,2.13,2.13,2.13,2.13,0,0,1-2.13,2.13,2.13,2.13,0,0,1-2.13-2.13A2.13,2.13,0,0,1-158.629,22.26Z" transform="translate(170.629 -12.389)" fill="#fff"/>
  </g>
</svg>
