<svg xmlns="http://www.w3.org/2000/svg" xmlns:xlink="http://www.w3.org/1999/xlink" width="21" height="21" viewBox="0 0 21 21">
  <defs>
    <clipPath id="clip-path">
      <rect id="사각형_5302" data-name="사각형 5302" width="21" height="21" transform="translate(340 1043)" fill="none"/>
    </clipPath>
  </defs>
  <g id="그룹_13480" data-name="그룹 13480" transform="translate(-340 -1043)">
    <path id="패스_11487" data-name="패스 11487" d="M7.624,6.632A1.581,1.581,0,0,1,8.889,6h8.7a1.581,1.581,0,0,1,1.581,1.581v9.487a1.581,1.581,0,0,1-1.581,1.581h-8.7a1.581,1.581,0,0,1-1.265-.632L4.066,13.273a1.581,1.581,0,0,1,0-1.9Z" transform="translate(339.25 1041)" fill="none" stroke="#579ee5" stroke-width="2"/>
    <g id="마스크_그룹_9560" data-name="마스크 그룹 9560" clip-path="url(#clip-path)">
      <path id="패스_11486" data-name="패스 11486" d="M21.243,18.243,16.5,13.5m4.743,0L16.5,18.243" transform="translate(333.22 1037.453)" fill="none" stroke="#579ee5" stroke-width="2"/>
    </g>
  </g>
</svg>
