<svg xmlns="http://www.w3.org/2000/svg" xmlns:xlink="http://www.w3.org/1999/xlink" width="21" height="21" viewBox="0 0 21 21">
  <defs>
    <clipPath id="clip-path">
      <rect id="사각형_5298" data-name="사각형 5298" width="21" height="21" transform="translate(340 363)" fill="#fff"/>
    </clipPath>
  </defs>
  <g id="그룹_13476" data-name="그룹 13476" transform="translate(-340 -363)">
    <g id="마스크_그룹_9556" data-name="마스크 그룹 9556" clip-path="url(#clip-path)">
      <path id="패스_11481" data-name="패스 11481" d="M6.281,12H18.749a1.781,1.781,0,0,1,1.781,1.781v8.906a1.781,1.781,0,0,1-1.781,1.781H6.281A1.781,1.781,0,0,1,4.5,22.687V13.781A1.781,1.781,0,0,1,6.281,12Z" transform="translate(338.5 358.343)" fill="none" stroke="#579ee5" stroke-width="2"/>
      <path id="패스_11482" data-name="패스 11482" d="M12.515,5.672A2.672,2.672,0,1,0,9.843,8.343m5.343,0a2.672,2.672,0,1,0-2.672-2.672m0,0V20.811m8.015-6.234H4.5" transform="translate(338.5 362)" fill="none" stroke="#579ee5" stroke-width="2"/>
    </g>
  </g>
</svg>
