<svg xmlns="http://www.w3.org/2000/svg" xmlns:xlink="http://www.w3.org/1999/xlink" width="21" height="21" viewBox="0 0 21 21">
  <defs>
    <clipPath id="clip-path">
      <rect id="사각형_5305" data-name="사각형 5305" width="21" height="21" transform="translate(340 1569)" fill="none"/>
    </clipPath>
  </defs>
  <g id="그룹_13483" data-name="그룹 13483" transform="translate(-340 -1569)">
    <g id="마스크_그룹_9563" data-name="마스크 그룹 9563" clip-path="url(#clip-path)">
      <path id="Icon_material-outline-tips-and-updates" data-name="Icon material-outline-tips-and-updates" d="M6.423,15.174H9.457a1.517,1.517,0,1,1-3.035,0Zm-1.517-.759h6.069V12.9H4.905ZM13.63,7.207a5.717,5.717,0,0,1-2.86,4.931H5.11a5.688,5.688,0,1,1,8.52-4.931Zm-1.517,0a4.173,4.173,0,0,0-8.345,0A4.124,4.124,0,0,0,5.55,10.622h4.78a4.124,4.124,0,0,0,1.783-3.414Zm5.212-1.616-1.039.478,1.039.478L17.8,7.587l.478-1.039,1.039-.478-1.039-.478L17.8,4.552Zm-1.8-1.039.713-1.563L17.8,2.276,16.24,1.563,15.527,0l-.713,1.563-1.563.713,1.563.713Z" transform="translate(339.75 1572)" fill="#579ee5"/>
    </g>
  </g>
</svg>
