<svg xmlns="http://www.w3.org/2000/svg" width="32" height="32" viewBox="0 0 32 32">
    <g data-name="그룹 13590">
        <g data-name="타원 565" style="stroke:#707070;fill:none">
            <circle cx="16" cy="16" r="16" style="stroke:none"/>
            <circle cx="16" cy="16" r="15.5" style="fill:none"/>
        </g>
        <path data-name="Icon awesome-star" d="m8.4.518-1.9 3.86L2.24 5a.933.933 0 0 0-.516 1.59l3.081 3-.729 4.241a.932.932 0 0 0 1.353.982l3.81-2 3.81 2a.933.933 0 0 0 1.353-.982l-.729-4.241 3.081-3A.933.933 0 0 0 16.237 5l-4.259-.621L10.075.518a.934.934 0 0 0-1.675 0z" transform="translate(7.059 8.501)" style="stroke-linecap:round;stroke-linejoin:round;stroke-width:1.2px;stroke:#707070;fill:none"/>
    </g>
</svg>
