<svg xmlns="http://www.w3.org/2000/svg" width="32" height="32" viewBox="0 0 32 32">
  <g id="그룹_13590" data-name="그룹 13590" transform="translate(-240 -144)">
    <g id="타원_565" data-name="타원 565" transform="translate(240 144)" fill="none" stroke="#707070" stroke-width="1">
      <circle cx="16" cy="16" r="16" stroke="none"/>
      <circle cx="16" cy="16" r="15.5" fill="none"/>
    </g>
    <path id="Icon_awesome-star" data-name="Icon awesome-star" d="M8.4.518,6.5,4.378,2.24,5A.933.933,0,0,0,1.724,6.59l3.081,3-.729,4.241a.932.932,0,0,0,1.353.982l3.81-2,3.81,2a.933.933,0,0,0,1.353-.982l-.729-4.241,3.081-3A.933.933,0,0,0,16.237,5l-4.259-.621L10.075.518A.934.934,0,0,0,8.4.518Z" transform="translate(247.059 152.501)" fill="#82c2bd"/>
  </g>
</svg>
