<svg width="37.000000" height="37.000000" viewBox="0 0 37 37" fill="none" xmlns="http://www.w3.org/2000/svg" xmlns:xlink="http://www.w3.org/1999/xlink">
	<desc>
			Created with Pixso.
	</desc>
	<defs/>
	<g style="mix-blend-mode:normal">
		<circle id="타원 379" cx="18.500000" cy="18.500000" r="18.500000" fill="#F0F0F0" fill-opacity="1.000000"/>
		<circle id="타원 379" cx="18.500000" cy="18.500000" r="18.000000" stroke="#707070" stroke-opacity="0" stroke-width="1.000000"/>
	</g>
	<g style="mix-blend-mode:normal">
		<path id="패스 8107" d="M25.56 18.6C25.56 18.07 25.52 17.56 25.43 17.08L18.43 17.08L18.43 19.95L22.43 19.95C22.26 20.88 21.73 21.67 20.95 22.2L20.95 24.06L23.35 24.06C24.75 22.77 25.56 20.86 25.56 18.6Z" fill="#4285F4" fill-opacity="1.000000" fill-rule="evenodd"/>
	</g>
	<g style="mix-blend-mode:normal">
		<path id="패스 8108" d="M18.43 25.86C20.43 25.86 22.12 25.2 23.35 24.06L20.95 22.2C20.28 22.64 19.43 22.9 18.43 22.9C16.49 22.9 14.85 21.6 14.27 19.84L11.79 19.84L11.79 21.77C13.01 24.2 15.52 25.86 18.43 25.86Z" fill="#34A853" fill-opacity="1.000000" fill-rule="evenodd"/>
	</g>
	<g style="mix-blend-mode:normal">
		<path id="패스 8109" d="M14.27 19.84C14.12 19.39 14.04 18.92 14.04 18.43C14.04 17.94 14.12 17.46 14.27 17.02L14.27 15.09L11.79 15.09C11.28 16.09 10.99 17.23 10.99 18.43C10.99 19.63 11.28 20.76 11.79 21.77L14.27 19.84Z" fill="#FBBC05" fill-opacity="1.000000" fill-rule="evenodd"/>
	</g>
	<g style="mix-blend-mode:normal">
		<path id="패스 8110" d="M18.43 13.95C19.52 13.95 20.5 14.33 21.27 15.06L23.4 12.93C22.11 11.73 20.43 11 18.43 11C15.52 11 13.01 12.66 11.79 15.09L14.27 17.02C14.85 15.26 16.49 13.95 18.43 13.95Z" fill="#EA4335" fill-opacity="1.000000" fill-rule="evenodd"/>
	</g>
</svg>
