<svg width="37.000000" height="37.000000" viewBox="0 0 37 37" fill="none" xmlns="http://www.w3.org/2000/svg" xmlns:xlink="http://www.w3.org/1999/xlink">
	<desc>
			Created with Pixso.
	</desc>
	<defs/>
	<g style="mix-blend-mode:normal">
		<circle id="타원 378" cx="18.500000" cy="18.500000" r="18.500000" fill="#F0F0F0" fill-opacity="1.000000"/>
		<circle id="타원 378" cx="18.500000" cy="18.500000" r="18.000000" stroke="#707070" stroke-opacity="0" stroke-width="1.000000"/>
	</g>
	<g style="mix-blend-mode:normal">
		<path id="패스 41040" d="M12 12L16.68 12C16.68 12 20.93 18.57 21.06 18.75C21.18 18.93 21.2 18.75 21.2 18.75C21 17.73 20.79 17.28 20.79 15.65L20.79 12L25.46 12L25.46 24.18L20.79 24.18C20.79 24.18 16.63 17.95 16.5 17.78C16.37 17.61 16.36 17.78 16.36 17.78C16.52 18.62 16.66 18.76 16.66 20.22L16.66 24.18L12 24.18L12 12Z" fill="#40A636" fill-opacity="1.000000" fill-rule="nonzero"/>
	</g>
</svg>
