<svg width="37.000000" height="37.000000" viewBox="0 0 37 37" fill="none" xmlns="http://www.w3.org/2000/svg" xmlns:xlink="http://www.w3.org/1999/xlink">
	<desc>
			Created with Pixso.
	</desc>
	<defs/>
	<g style="mix-blend-mode:normal">
		<circle id="타원 380" cx="18.500000" cy="18.500000" r="18.500000" fill="#F0F0F0" fill-opacity="1.000000"/>
		<circle id="타원 380" cx="18.500000" cy="18.500000" r="18.000000" stroke="#707070" stroke-opacity="0" stroke-width="1.000000"/>
	</g>
	<g style="mix-blend-mode:normal">
		<path id="패스 41041" d="M23.33 18.86C23.31 16.76 25.05 15.73 25.13 15.68C24.14 14.24 22.61 14.05 22.07 14.03C20.79 13.9 19.54 14.8 18.89 14.8C18.22 14.8 17.21 14.04 16.12 14.07C14.73 14.09 13.42 14.9 12.7 16.15C11.22 18.72 12.32 22.49 13.74 24.56C14.45 25.58 15.28 26.71 16.37 26.67C17.43 26.63 17.83 25.99 19.11 25.99C20.38 25.99 20.75 26.67 21.86 26.64C23 26.63 23.71 25.62 24.4 24.6C25.22 23.44 25.55 22.29 25.56 22.23C25.54 22.22 23.35 21.39 23.33 18.86Z" fill="#000000" fill-opacity="1.000000" fill-rule="nonzero"/>
	</g>
	<g style="mix-blend-mode:normal">
		<path id="패스 41042" d="M21.24 12.67C21.81 11.95 22.2 10.98 22.09 10C21.26 10.03 20.23 10.57 19.63 11.27C19.11 11.88 18.64 12.89 18.76 13.84C19.69 13.91 20.64 13.37 21.24 12.67Z" fill="#000000" fill-opacity="1.000000" fill-rule="nonzero"/>
	</g>
</svg>
