<svg xmlns="http://www.w3.org/2000/svg" xmlns:xlink="http://www.w3.org/1999/xlink" width="20" height="20" viewBox="0 0 20 20">
  <defs>
    <clipPath id="clip-path">
      <rect id="사각형_5678" data-name="사각형 5678" width="20" height="20" transform="translate(390 1603)" fill="none" stroke="#82c2bd" stroke-width="1"/>
    </clipPath>
  </defs>
  <g id="마스크_그룹_9622" data-name="마스크 그룹 9622" transform="translate(-390 -1603)" clip-path="url(#clip-path)">
    <g id="그룹_13328" data-name="그룹 13328">
      <path id="패스_11667" data-name="패스 11667" d="M-9.135-8.792A.644.644,0,0,1-8.9-9.12a.661.661,0,0,1,.384-.109A.706.706,0,0,1-8-9.042a.7.7,0,0,1,.194.525v5.584H-9.22V-7.043h-.592A.843.843,0,0,1-10.33-7.2a.514.514,0,0,1-.208-.437.547.547,0,0,1,.145-.388.616.616,0,0,1,.363-.19,1.517,1.517,0,0,0,.564-.18A.721.721,0,0,0-9.135-8.792ZM-5.49-2.933a.9.9,0,0,1-.638-.219.794.794,0,0,1-.236-.613v-.078a2.752,2.752,0,0,1,.092-.769A1.636,1.636,0,0,1-6-5.154,4.452,4.452,0,0,1-5.49-5.69l1.177-1.086a1.946,1.946,0,0,0,.328-.363.631.631,0,0,0,.1-.349.4.4,0,0,0-.155-.338.582.582,0,0,0-.367-.12.767.767,0,0,0-.377.081,1.192,1.192,0,0,0-.279.222.865.865,0,0,1-.367.282.625.625,0,0,1-.2.028.719.719,0,0,1-.458-.162.544.544,0,0,1-.2-.451.776.776,0,0,1,.113-.4,1.686,1.686,0,0,1,.747-.659,2.68,2.68,0,0,1,1.135-.222,2.291,2.291,0,0,1,.927.183,1.548,1.548,0,0,1,.67.546,1.5,1.5,0,0,1,.25.871,1.711,1.711,0,0,1-.127.673,2.128,2.128,0,0,1-.331.543q-.2.243-.564.6l-.9.874q-.2.19-.226.2a1.559,1.559,0,0,0-.219.219.343.343,0,0,0-.063.212v.049a.093.093,0,0,0,.106.106h2.383v1.22ZM2.83-4.872a2.05,2.05,0,0,1-.293,1.114,1.842,1.842,0,0,1-.8.7A2.676,2.676,0,0,1,.6-2.82,2.657,2.657,0,0,1-.36-3a1.539,1.539,0,0,1-.7-.494.619.619,0,0,1-.127-.381.605.605,0,0,1,.053-.247.637.637,0,0,1,.152-.212A.574.574,0,0,1-.6-4.484a.657.657,0,0,1,.233.042,1.163,1.163,0,0,1,.194.1l.194.12a1.167,1.167,0,0,0,.564.12.879.879,0,0,0,.628-.219.782.782,0,0,0,.233-.6.711.711,0,0,0-.264-.6,1.141,1.141,0,0,0-.716-.2H.087a.536.536,0,0,1-.338-.109A.5.5,0,0,1-.434-6.1a.879.879,0,0,1-.021-.183.709.709,0,0,1,.254-.5L.969-7.939H-.5a.528.528,0,0,1-.434-.176.626.626,0,0,1-.145-.409.63.63,0,0,1,.148-.412.525.525,0,0,1,.43-.18H1.829a.741.741,0,0,1,.582.25.841.841,0,0,1,.222.575A.762.762,0,0,1,2.4-7.72L1.314-6.648a1.766,1.766,0,0,1,.776.275,1.57,1.57,0,0,1,.543.61A1.926,1.926,0,0,1,2.83-4.872Z" transform="translate(404.303 1619.285)" fill="#82c2bd" stroke="#82c2bd" stroke-width="0.2"/>
      <g id="타원_504" data-name="타원 504" transform="translate(390 1603)" fill="none" stroke="#82c2bd" stroke-width="1.5">
        <circle cx="10" cy="10" r="10" stroke="none"/>
        <circle cx="10" cy="10" r="9.25" fill="none"/>
      </g>
    </g>
  </g>
</svg>
