<svg xmlns="http://www.w3.org/2000/svg" width="30" height="30" viewBox="0 0 30 30">
  <g id="icon_like_off_24" transform="translate(0.719 0.719)">
    <rect id="사각형_1594" data-name="사각형 1594" width="30" height="30" transform="translate(-0.719 -0.719)" fill="none"/>
    <g id="Icon_akar-eye" data-name="Icon akar-eye" transform="translate(-2.695 -2.973)">
      <path id="패스_11494" data-name="패스 11494" d="M29.875,15.808a2.359,2.359,0,0,1,0,2.893c-2.08,2.716-7.072,8.308-12.9,8.308S6.157,21.417,4.077,18.7a2.358,2.358,0,0,1,0-2.893c2.08-2.716,7.072-8.308,12.9-8.308S27.795,13.092,29.875,15.808Z" transform="translate(0 0)" fill="none" stroke="#000" stroke-linecap="round" stroke-linejoin="round" stroke-width="1.5"/>
      <path id="패스_11495" data-name="패스 11495" d="M21.861,17.68a4.18,4.18,0,1,1-4.18-4.18A4.18,4.18,0,0,1,21.861,17.68Z" transform="translate(-0.704 -0.426)" fill="none" stroke="#000" stroke-linecap="round" stroke-linejoin="round" stroke-width="1.5"/>
    </g>
  </g>
</svg>
