<svg xmlns="http://www.w3.org/2000/svg" width="30" height="30" viewBox="0 0 30 30">
  <g id="그룹_9792" data-name="그룹 9792" transform="translate(-860 -142)">
    <rect id="사각형_3292" data-name="사각형 3292" width="30" height="30" transform="translate(860 142)" fill="none"/>
    <g id="그룹_11805" data-name="그룹 11805" transform="translate(863.657 146.703)">
      <g id="그룹_11806" data-name="그룹 11806">
        <g id="패스_10667" data-name="패스 10667" fill="#333">
          <path d="M 20.32252311706543 20.3121395111084 L 20.09369277954102 20.18911933898926 L 15.67087650299072 17.81121063232422 C 14.28770923614502 18.26821899414062 12.83204555511475 18.49985885620117 11.34287357330322 18.49985885620117 C 5.005683422088623 18.49985885620117 -0.149996429681778 14.3167085647583 -0.149996429681778 9.174928665161133 C -0.149996429681778 4.033148765563965 5.005683422088623 -0.1500013470649719 11.34287357330322 -0.1500013470649719 C 17.68006324768066 -0.1500013470649719 22.83574295043945 4.033148765563965 22.83574295043945 9.174928665161133 C 22.83574295043945 11.35188388824463 21.88826560974121 13.46882438659668 20.16598320007324 15.14324188232422 L 20.31465339660645 20.05245780944824 L 20.32252311706543 20.3121395111084 Z M 15.7833833694458 16.38900947570801 L 15.84193325042725 16.42047882080078 L 18.94871139526367 18.09079551696777 L 18.84482383728027 14.65927886962891 L 18.84274291992188 14.5905590057373 L 18.8934440612793 14.54411888122559 L 19.0633430480957 14.38850879669189 C 20.65387344360352 12.93084907531738 21.52983283996582 11.07928848266602 21.52983283996582 9.174928665161133 C 21.52983283996582 4.753228664398193 16.95998382568359 1.155908703804016 11.34287357330322 1.155908703804016 C 5.72576379776001 1.155908703804016 1.155913591384888 4.753228664398193 1.155913591384888 9.174928665161133 C 1.155913591384888 13.59662818908691 5.72576379776001 17.19394874572754 11.34287357330322 17.19394874572754 C 12.78367328643799 17.19394874572754 14.18594360351562 16.95567893981934 15.51071357727051 16.48576927185059 L 15.72073364257812 16.4112377166748 L 15.7833833694458 16.38900947570801 Z" stroke="none"/>
          <path d="M 20.16472434997559 20.05699920654297 L 20.0140438079834 15.08144855499268 C 21.73898315429688 13.42641830444336 22.68574333190918 11.3373384475708 22.68574333190918 9.174928665161133 C 22.68574333190918 4.115898609161377 17.59733390808105 -1.350402840216702e-06 11.34287357330322 -1.350402840216702e-06 C 5.088413715362549 -1.350402840216702e-06 3.573303274606587e-06 4.115898609161377 3.573303274606587e-06 9.174928665161133 C 3.573303274606587e-06 14.23396873474121 5.088413715362549 18.3498592376709 11.34287357330322 18.3498592376709 C 12.83917331695557 18.3498592376709 14.29875373840332 18.11387825012207 15.68489360809326 17.64843940734863 L 20.16472434997559 20.05699920654297 M 19.10650444030762 18.34593772888184 L 15.77090358734131 16.55259895324707 L 15.56086349487305 16.62713813781738 C 14.22008323669434 17.10272789001465 12.80094337463379 17.34394836425781 11.34287357330322 17.34394836425781 C 5.643073558807373 17.34394836425781 1.005913615226746 13.67930889129639 1.005913615226746 9.174928665161133 C 1.005913615226746 4.670448780059814 5.643073558807373 1.005908608436584 11.34287357330322 1.005908608436584 C 17.04267311096191 1.005908608436584 21.67983436584473 4.670448780059814 21.67983436584473 9.174928665161133 C 21.67983436584473 11.1218786239624 20.78658294677734 13.01268863677979 19.16465377807617 14.4991283416748 L 18.99475288391113 14.6547384262085 L 19.10650444030762 18.34593772888184 M 20.48031425476074 20.56728935241699 L 15.656494140625 17.97377777099609 C 14.27654075622559 18.42244148254395 12.8259801864624 18.64985847473145 11.34287357330322 18.64985847473145 C 4.9229736328125 18.64985847473145 -0.2999964356422424 14.39941883087158 -0.2999964356422424 9.174928665161133 C -0.2999964356422424 3.950438737869263 4.9229736328125 -0.3000013530254364 11.34287357330322 -0.3000013530254364 C 17.76277351379395 -0.3000013530254364 22.98574447631836 3.950438737869263 22.98574447631836 9.174928665161133 C 22.98574447631836 11.37267398834229 22.03941917419434 13.50889015197754 20.31790351867676 15.20444107055664 L 20.48031425476074 20.56728935241699 Z M 15.79586315155029 16.22540855407715 L 18.79092025756836 17.83566284179688 L 18.69073295593262 14.5263786315918 L 18.96203422546387 14.27789878845215 C 20.52115440368652 12.84901905059814 21.37983322143555 11.03672885894775 21.37983322143555 9.174928665161133 C 21.37983322143555 4.835938453674316 16.87727355957031 1.305908679962158 11.34287357330322 1.305908679962158 C 5.808473587036133 1.305908679962158 1.30591356754303 4.835938453674316 1.30591356754303 9.174928665161133 C 1.30591356754303 13.51391887664795 5.808473587036133 17.04394912719727 11.34287357330322 17.04394912719727 C 12.7665433883667 17.04394912719727 14.15194320678711 16.8085880279541 15.46057319641113 16.34439849853516 L 15.79586315155029 16.22540855407715 Z" stroke="none" fill="#333"/>
        </g>
      </g>
    </g>
    <rect id="사각형_3967" data-name="사각형 3967" width="1.5" height="8" rx="0.75" transform="translate(878.999 155.221) rotate(90)" fill="#666"/>
    <rect id="사각형_3968" data-name="사각형 3968" width="1.5" height="4" rx="0.75" transform="translate(874.999 157.981) rotate(90)" fill="#666"/>
    <rect id="사각형_3969" data-name="사각형 3969" width="1.5" height="8" rx="0.75" transform="translate(879 152.461) rotate(90)" fill="#666"/>
  </g>
</svg>
