<svg xmlns="http://www.w3.org/2000/svg" width="11" height="11" viewBox="0 0 11 11">
  <g id="그룹_13473" data-name="그룹 13473" transform="translate(-1589 -503)">
    <g id="그룹_13264" data-name="그룹 13264" transform="translate(0 0)">
      <path id="합치기_2" data-name="합치기 2" d="M-4017.345-31.868a.664.664,0,0,1,0-.987l2.968-2.761-2.966-2.759a.664.664,0,0,1,0-.987.791.791,0,0,1,1.061,0l3.485,3.242a.667.667,0,0,1,.215.568.675.675,0,0,1-.217.441l-3.486,3.242a.776.776,0,0,1-.53.2A.777.777,0,0,1-4017.345-31.868Z" transform="translate(5608.577 544.565)" fill="#d3d3d3"/>
      <path id="합치기_3" data-name="합치기 3" d="M-4017.345-31.868a.664.664,0,0,1,0-.987l2.968-2.761-2.966-2.759a.664.664,0,0,1,0-.987.791.791,0,0,1,1.061,0l3.485,3.242a.667.667,0,0,1,.215.568.675.675,0,0,1-.217.441l-3.486,3.242a.776.776,0,0,1-.53.2A.777.777,0,0,1-4017.345-31.868Z" transform="translate(5612.577 544.565)" fill="#d3d3d3"/>
    </g>
    <rect id="사각형_5903" data-name="사각형 5903" width="11" height="11" transform="translate(1589 503)" fill="none"/>
  </g>
</svg>
