<svg id="icon_search_24" xmlns="http://www.w3.org/2000/svg" width="30" height="30" viewBox="0 0 30 30">
  <rect id="사각형_1593" data-name="사각형 1593" width="30" height="30" fill="none"/>
  <g id="그룹_6965" data-name="그룹 6965" transform="translate(1.651 1.787)">
    <path id="Vector" d="M12.149,24.3A12.149,12.149,0,1,1,24.3,12.149,12.163,12.163,0,0,1,12.149,24.3Zm0-22.519A10.371,10.371,0,1,0,22.519,12.149,10.382,10.382,0,0,0,12.149,1.778Z" transform="translate(0 0)" fill="#707070"/>
    <path id="Vector-2" data-name="Vector" d="M1.99,3.4-2.988-1.525a.889.889,0,0,1,0-1.249.889.889,0,0,1,1.249,0L3.239,2.153a.889.889,0,0,1,0,1.249.882.882,0,0,1-1.249,0Z" transform="translate(22.761 22.764)" fill="#707070"/>
  </g>
</svg>
