<svg xmlns="http://www.w3.org/2000/svg" width="31" height="31" viewBox="0 0 31 31">
    <path data-name="사각형 1593" style="fill:none" d="M0 0h31v31H0z"/>
    <g data-name="그룹 6965">
        <path d="M9.114 18.228a9.114 9.114 0 1 1 9.114-9.114 9.124 9.124 0 0 1-9.114 9.114zm0-16.894a7.78 7.78 0 1 0 7.78 7.78 7.789 7.789 0 0 0-7.78-7.78z" transform="translate(6 6)" style="stroke:#000;stroke-width:.5px"/>
        <path data-name="Vector" d="m.683 1.8-3.735-3.7a.667.667 0 0 1 0-.937.667.667 0 0 1 .937 0L1.62.858a.667.667 0 0 1 0 .937.661.661 0 0 1-.937 0z" transform="translate(23.885 23.834)" style="stroke:#000;stroke-width:.5px"/>
    </g>
</svg>
