<svg xmlns="http://www.w3.org/2000/svg" width="24" height="24" viewBox="0 0 24 24">
  <g id="그룹_6965" data-name="그룹 6965" transform="translate(0.1 0.1)">
    <path id="Vector" d="M9.149,18.3A9.149,9.149,0,1,1,18.3,9.149,9.159,9.159,0,0,1,9.149,18.3Zm0-16.958a7.81,7.81,0,1,0,7.81,7.81A7.819,7.819,0,0,0,9.149,1.339Z" fill="#707070" stroke="#707070" stroke-width="0.2"/>
    <path id="Vector-2" data-name="Vector" d="M1.15,2.37-3.029-1.766a.746.746,0,0,1,0-1.048.746.746,0,0,1,1.048,0L2.2,1.321a.746.746,0,0,1,0,1.048.74.74,0,0,1-1.048,0Z" transform="translate(17.842 17.838)" fill="#707070" stroke="#707070" stroke-width="0.2"/>
  </g>
</svg>
