<svg xmlns="http://www.w3.org/2000/svg" width="11.999" height="12.854" viewBox="0 0 11.999 12.854">
  <path id="Icon_core-share-alt" data-name="Icon core-share-alt" d="M12.209,9.908a2.032,2.032,0,0,0-1.612.8L6.207,8.212a2.027,2.027,0,0,0,0-1.321L10.6,4.4a2.034,2.034,0,1,0-.369-.776L5.763,6.158a2.035,2.035,0,1,0,0,2.788l4.465,2.534a2.035,2.035,0,1,0,1.981-1.571Zm0-7.927A1.178,1.178,0,1,1,11.03,3.16,1.178,1.178,0,0,1,12.209,1.982ZM4.282,8.73A1.178,1.178,0,1,1,5.46,7.552,1.178,1.178,0,0,1,4.282,8.73Zm7.927,4.392a1.178,1.178,0,1,1,1.178-1.178,1.178,1.178,0,0,1-1.178,1.178Z" transform="translate(-2.245 -1.124)" fill="#666"/>
</svg>
