<svg xmlns="http://www.w3.org/2000/svg" width="12.598" height="13.064" viewBox="0 0 12.598 13.064">
  <path id="Icon_core-list" data-name="Icon core-list" d="M7.712,3.65h7.7v.933h-7.7Zm-4.9.467A1.866,1.866,0,1,0,4.679,2.25,1.866,1.866,0,0,0,2.812,4.116Zm1.866-.933a.933.933,0,1,1-.933.933A.933.933,0,0,1,4.679,3.183ZM7.712,8.316h7.7v.933h-7.7ZM4.679,10.648A1.866,1.866,0,1,0,2.812,8.782a1.866,1.866,0,0,0,1.866,1.866Zm0-2.8a.933.933,0,1,1-.933.933.933.933,0,0,1,.933-.933Zm3.033,5.132h7.7v.933h-7.7ZM4.679,15.314a1.866,1.866,0,1,0-1.866-1.866A1.866,1.866,0,0,0,4.679,15.314Zm0-2.8a.933.933,0,1,1-.933.933A.933.933,0,0,1,4.679,12.515Z" transform="translate(-2.813 -2.25)" fill="#666"/>
</svg>
