<svg width="17.454102" height="17.454590" viewBox="0 0 17.4541 17.4546" fill="none" xmlns="http://www.w3.org/2000/svg" xmlns:xlink="http://www.w3.org/1999/xlink">
	<desc>
			Created with Pixso.
	</desc>
	<defs/>
	<g style="mix-blend-mode:normal">
		<path id="패스 11471" d="M16.7 8.72C16.7 4.32 13.13 0.75 8.72 0.75C4.32 0.75 0.75 4.32 0.75 8.72C0.75 13.13 4.32 16.7 8.72 16.7C13.13 16.7 16.7 13.13 16.7 8.72Z" fill="#000000" fill-opacity="0" fill-rule="nonzero"/>
		<path id="패스 11471" d="M8.72 0.75C4.32 0.75 0.75 4.32 0.75 8.72C0.75 13.13 4.32 16.7 8.72 16.7C13.13 16.7 16.7 13.13 16.7 8.72C16.7 4.32 13.13 0.75 8.72 0.75Z" stroke="#579EE5" stroke-opacity="1.000000" stroke-width="1.500000"/>
	</g>
	<g style="mix-blend-mode:normal">
		<path id="패스 11472" d="" fill="#000000" fill-opacity="0" fill-rule="nonzero"/>
		<path id="패스 11472" d="M12.71 5.4L7.13 12.05L4.73 9.39" stroke="#579EE5" stroke-opacity="1.000000" stroke-width="1.500000" stroke-linejoin="round"/>
	</g>
</svg>
