<svg xmlns="http://www.w3.org/2000/svg" width="31" height="31" viewBox="0 0 31 31">
    <defs>
        <clipPath id="3rsk6kl70a">
            <path data-name="사각형 3" transform="translate(.066)" style="fill:#fff;stroke:#707070" d="M0 0h31v31H0z"/>
        </clipPath>
    </defs>
    <g data-name="마스크 그룹 3" transform="translate(-.066)" style="clip-path:url(#3rsk6kl70a)">
        <g data-name="그룹 2">
            <path data-name="Icon material-person-outline" d="M16.658 8.531a2.8 2.8 0 1 1-2.8 2.8 2.8 2.8 0 0 1 2.8-2.8m0 11.99c3.957 0 8.127 1.945 8.127 2.8v1.465H8.531v-1.467c0-.853 4.17-2.8 8.127-2.8m0-14.519a5.329 5.329 0 1 0 5.329 5.329A5.327 5.327 0 0 0 16.658 6zm0 11.99C13.1 17.99 6 19.775 6 23.319v4h21.316v-4c0-3.544-7.101-5.329-10.658-5.329z" transform="translate(-1.093 -.664)" style="stroke:#fff;stroke-width:.8px"/>
        </g>
    </g>
</svg>
