<svg xmlns="http://www.w3.org/2000/svg" xmlns:xlink="http://www.w3.org/1999/xlink" width="31" height="31" viewBox="0 0 31 31">
  <defs>
    <clipPath id="clip-path">
      <rect id="사각형_3" data-name="사각형 3" width="31" height="31" transform="translate(0.066)" fill="#fff" stroke="#707070" stroke-width="1"/>
    </clipPath>
  </defs>
  <g id="마스크_그룹_3" data-name="마스크 그룹 3" transform="translate(-0.066)" clip-path="url(#clip-path)">
    <g id="그룹_2" data-name="그룹 2" transform="translate(4.907 5.336)">
      <path id="Icon_material-person-outline" data-name="Icon material-person-outline" d="M16.658,8.531a2.8,2.8,0,1,1-2.8,2.8,2.8,2.8,0,0,1,2.8-2.8m0,11.99c3.957,0,8.127,1.945,8.127,2.8v1.465H8.531V23.319c0-.853,4.17-2.8,8.127-2.8M16.658,6a5.329,5.329,0,1,0,5.329,5.329A5.327,5.327,0,0,0,16.658,6Zm0,11.99C13.1,17.99,6,19.775,6,23.319v4H27.316v-4C27.316,19.775,20.215,17.99,16.658,17.99Z" transform="translate(-6 -6)" stroke="#fff" stroke-width="0.8"/>
    </g>
  </g>
</svg>
