<svg width="45.000000" height="45.000000" viewBox="0 0 45 45" fill="none" xmlns="http://www.w3.org/2000/svg" xmlns:xlink="http://www.w3.org/1999/xlink">
	<desc>
			Created with Pixso.
	</desc>
	<defs/>
	<g style="mix-blend-mode:normal">
		<circle id="타원 454" cx="22.500000" cy="22.500000" r="22.500000" fill="#707070" fill-opacity="1.000000"/>
		<circle id="타원 454" cx="22.500000" cy="22.500000" r="22.000000" stroke="#C1C1C1" stroke-opacity="0" stroke-width="1.000000"/>
	</g>
	<g style="mix-blend-mode:normal">
		<path id="패스 11461" d="M29.37 14L15.54 14C14.14 14 13 15.14 13 16.54L13 25.27C13 26.68 14.14 27.81 15.54 27.82L17.36 27.82L17.36 31.46L21.62 27.9C21.69 27.85 21.77 27.82 21.86 27.82L29.37 27.82C30.77 27.81 31.91 26.68 31.91 25.27L31.91 16.54C31.91 15.14 30.77 14 29.37 14Z" fill="#000000" fill-opacity="0" fill-rule="nonzero"/>
		<path id="패스 11461" d="M15.54 14C14.14 14 13 15.14 13 16.54L13 25.27C13 26.68 14.14 27.81 15.54 27.82L17.36 27.82L17.36 31.46L21.62 27.9C21.69 27.85 21.77 27.82 21.86 27.82L29.37 27.82C30.77 27.81 31.91 26.68 31.91 25.27L31.91 16.54C31.91 15.14 30.77 14 29.37 14L15.54 14Z" stroke="#FFFFFF" stroke-opacity="1.000000" stroke-width="2.250000" stroke-linejoin="round"/>
	</g>
	<g style="mix-blend-mode:normal">
		<path id="패스 11462" d="M19.54 20.91C19.54 21.71 18.89 22.36 18.09 22.36C17.29 22.36 16.63 21.71 16.63 20.91C16.63 20.1 17.29 19.45 18.09 19.45C18.89 19.45 19.54 20.1 19.54 20.91Z" fill="#FFFFFF" fill-opacity="1.000000" fill-rule="nonzero"/>
		<path id="패스 11462" d="M18.09 22.36C17.29 22.36 16.63 21.71 16.63 20.91C16.63 20.1 17.29 19.45 18.09 19.45C18.89 19.45 19.54 20.1 19.54 20.91C19.54 21.71 18.89 22.36 18.09 22.36Z" stroke="#000000" stroke-opacity="0" stroke-width="0.070312"/>
	</g>
	<g style="mix-blend-mode:normal">
		<path id="패스 11463" d="M23.91 20.91C23.91 21.71 23.26 22.36 22.45 22.36C21.65 22.36 21 21.71 21 20.91C21 20.1 21.65 19.45 22.45 19.45C23.26 19.45 23.91 20.1 23.91 20.91Z" fill="#FFFFFF" fill-opacity="1.000000" fill-rule="nonzero"/>
		<path id="패스 11463" d="M22.45 22.36C21.65 22.36 21 21.71 21 20.91C21 20.1 21.65 19.45 22.45 19.45C23.26 19.45 23.91 20.1 23.91 20.91C23.91 21.71 23.26 22.36 22.45 22.36Z" stroke="#000000" stroke-opacity="0" stroke-width="0.070312"/>
	</g>
	<g style="mix-blend-mode:normal">
		<path id="패스 11464" d="M28.27 20.91C28.27 21.71 27.62 22.36 26.82 22.36C26.02 22.36 25.36 21.71 25.36 20.91C25.36 20.1 26.02 19.45 26.82 19.45C27.62 19.45 28.27 20.1 28.27 20.91Z" fill="#FFFFFF" fill-opacity="1.000000" fill-rule="nonzero"/>
		<path id="패스 11464" d="M26.82 22.36C26.02 22.36 25.36 21.71 25.36 20.91C25.36 20.1 26.02 19.45 26.82 19.45C27.62 19.45 28.27 20.1 28.27 20.91C28.27 21.71 27.62 22.36 26.82 22.36Z" stroke="#000000" stroke-opacity="0" stroke-width="0.070312"/>
	</g>
</svg>
