<svg width="22.000000" height="22.000000" viewBox="0 0 22 22" fill="none" xmlns="http://www.w3.org/2000/svg" xmlns:xlink="http://www.w3.org/1999/xlink">
	<desc>
			Created with Pixso.
	</desc>
	<defs/>
	<mask id="mask1_567" mask-type="alpha" maskUnits="userSpaceOnUse" x="0.000000" y="0.000000" width="22.000000" height="22.000000">
		<g style="mix-blend-mode:normal">
			<rect id="사각형 5249" width="22.000000" height="22.000000" fill="#579EE5" fill-opacity="1.000000"/>
			<rect id="사각형 5249" x="0.500000" y="0.500000" width="21.000000" height="21.000000" stroke="#707070" stroke-opacity="0" stroke-width="1.000000"/>
		</g>
	</mask>
	<g mask="url(#mask1_567)">
		<g style="mix-blend-mode:normal">
			<path id="Icon material-outline-timer" d="M13.42 2L7.71 2L7.71 3.9L13.42 3.9L13.42 2ZM9.62 14.38L11.52 14.38L11.52 8.66L9.62 8.66L9.62 14.38ZM17.26 8.08L18.62 6.73C18.21 6.24 17.76 5.79 17.27 5.39L15.92 6.74C14.4 5.52 12.51 4.85 10.57 4.85C5.83 4.85 2 8.69 2 13.42C2 18.16 5.82 22 10.57 22C13.86 22 16.86 20.11 18.29 17.14C19.72 14.18 19.32 10.65 17.26 8.08ZM10.57 20.09C6.88 20.09 3.9 17.11 3.9 13.42C3.9 9.74 6.88 6.76 10.57 6.76C14.25 6.76 17.23 9.74 17.23 13.42C17.23 17.11 14.25 20.09 10.57 20.09Z" fill="#579EE5" fill-opacity="1.000000" fill-rule="nonzero"/>
			<path id="Icon material-outline-timer" d="M7.71 2L7.71 3.9L13.42 3.9L13.42 2L7.71 2ZM11.52 14.38L11.52 8.66L9.62 8.66L9.62 14.38L11.52 14.38ZM18.62 6.73C18.21 6.24 17.76 5.79 17.27 5.39L15.92 6.74C14.4 5.52 12.51 4.85 10.57 4.85C5.83 4.85 2 8.69 2 13.42C2 18.16 5.82 22 10.57 22C13.86 22 16.86 20.11 18.29 17.14C19.72 14.18 19.32 10.65 17.26 8.08L18.62 6.73ZM3.9 13.42C3.9 9.74 6.88 6.76 10.57 6.76C14.25 6.76 17.23 9.74 17.23 13.42C17.23 17.11 14.25 20.09 10.57 20.09C6.88 20.09 3.9 17.11 3.9 13.42Z" stroke="#000000" stroke-opacity="0" stroke-width="1.500000"/>
		</g>
	</g>
</svg>
