<svg xmlns="http://www.w3.org/2000/svg" xmlns:xlink="http://www.w3.org/1999/xlink" width="24" height="24" viewBox="0 0 24 24">
  <defs>
    <clipPath id="clip-path">
      <circle id="타원_376" data-name="타원 376" cx="12" cy="12" r="12" transform="translate(0.186)" fill="#c50f1f"/>
    </clipPath>
  </defs>
  <g id="그룹_13462" data-name="그룹 13462" transform="translate(-290 -2680)">
    <g id="그룹_11740" data-name="그룹 11740" transform="translate(289.814 2680)">
      <g id="그룹_11739" data-name="그룹 11739" clip-path="url(#clip-path)">
        <g id="그룹_11738" data-name="그룹 11738" transform="translate(0 -0.008)">
          <path id="패스_10659" data-name="패스 10659" d="M13.012,1C8,1,6.533,1.005,6.248,1.029a5.957,5.957,0,0,0-2.366.595A4.793,4.793,0,0,0,2.5,2.633a5.153,5.153,0,0,0-1.391,2.92A21.669,21.669,0,0,0,1,9.1c0,.956,0,2.214,0,3.9,0,5.009.006,6.473.03,6.758a6.031,6.031,0,0,0,.573,2.32,5.058,5.058,0,0,0,3.278,2.678,8.519,8.519,0,0,0,1.743.231c.3.013,3.328.022,6.361.022s6.065,0,6.355-.018a8.2,8.2,0,0,0,1.806-.236,5.027,5.027,0,0,0,3.278-2.684,5.932,5.932,0,0,0,.566-2.275c.016-.207.023-3.5.023-6.8S25.008,6.41,24.991,6.2a5.865,5.865,0,0,0-.578-2.3A4.759,4.759,0,0,0,23.386,2.5,5.184,5.184,0,0,0,20.463,1.11,21.639,21.639,0,0,0,16.92,1Z" transform="translate(-1.001 -1)" fill="#c50f1f"/>
          <path id="패스_10660" data-name="패스 10660" d="M13.012,1C8,1,6.533,1.005,6.248,1.029a5.957,5.957,0,0,0-2.366.595A4.793,4.793,0,0,0,2.5,2.633a5.153,5.153,0,0,0-1.391,2.92A21.669,21.669,0,0,0,1,9.1c0,.956,0,2.214,0,3.9,0,5.009.006,6.473.03,6.758a6.031,6.031,0,0,0,.573,2.32,5.058,5.058,0,0,0,3.278,2.678,8.519,8.519,0,0,0,1.743.231c.3.013,3.328.022,6.361.022s6.065,0,6.355-.018a8.2,8.2,0,0,0,1.806-.236,5.027,5.027,0,0,0,3.278-2.684,5.932,5.932,0,0,0,.566-2.275c.016-.207.023-3.5.023-6.8S25.008,6.41,24.991,6.2a5.865,5.865,0,0,0-.578-2.3A4.759,4.759,0,0,0,23.386,2.5,5.184,5.184,0,0,0,20.463,1.11,21.639,21.639,0,0,0,16.92,1Z" transform="translate(-1.001 -1)" fill="#c50f1f"/>
        </g>
      </g>
    </g>
    <g id="그룹_13461" data-name="그룹 13461" transform="translate(1.199 1.591)">
      <path id="패스_11729" data-name="패스 11729" d="M747.151,178.427c-.522-.078-3.035-.176-5.029-.176s-4.508.1-5.029.176a1.823,1.823,0,0,0-1.666,1.607,26.4,26.4,0,0,0-.21,3.031v.163a26.454,26.454,0,0,0,.21,3.033,1.821,1.821,0,0,0,1.666,1.6c.522.078,3.037.176,5.035.176h-.009c2,0,4.51-.1,5.034-.177a1.824,1.824,0,0,0,1.667-1.6,26.674,26.674,0,0,0,.21-3.033v-.163a26.617,26.617,0,0,0-.21-3.031,1.824,1.824,0,0,0-1.667-1.607" transform="translate(-441.415 2507.158)" fill="#fff"/>
      <path id="패스_11730" data-name="패스 11730" d="M747.538,185.589l5.083,2.654-5.083,2.781Z" transform="translate(-448.951 2502)" fill="#c40f1d"/>
    </g>
  </g>
</svg>
