<svg xmlns="http://www.w3.org/2000/svg" width="95.452" height="27.001" viewBox="0 0 95.452 27.001">
  <g id="그룹_13463" data-name="그룹 13463" transform="translate(-74.454 -48.794)" opacity="0.8">
    <path id="패스_11533" data-name="패스 11533" d="M84.75,51.035c1.83,0,3.351,0,4.8,1.019a4.628,4.628,0,0,1,2.314,3.821c0,2.064-1.588,3.3-3.663,3.912a5.37,5.37,0,0,1,4.975,5.271,5.85,5.85,0,0,1-2.451,4.775c-1.867,1.449-3.7,1.48-6.15,1.48H74.454v-.093c1.693-.954,1.45-2.68,1.45-4.312v-11.5c0-1.6.243-3.357-1.45-4.284v-.093h10.3M82.3,58.8a2.4,2.4,0,0,0,.655.122,2.5,2.5,0,0,0,2.523-2.651A2.17,2.17,0,0,0,83.3,53.9a2.877,2.877,0,0,0-1,.186V58.8m0,9.243a2.569,2.569,0,0,0,1.518.372c2.247,0,3.145-1.665,3.145-3.451,0-2.343-1.21-3.391-3.834-3.391H82.3v6.47Z" transform="translate(0 -0.495)" fill="#fff"/>
    <path id="패스_11534" data-name="패스 11534" d="M104.733,56.157a4.646,4.646,0,0,0,2.35-.462h.1V66.943c0,1.419-.1,2.312,1.207,3.3v.092H100v-.092c1.313-.986,1.21-1.879,1.21-3.3v-7.4c0-1.447.1-2.342-1.175-3.3v-.093h4.7m-4.007-3.451a3.28,3.28,0,0,1,6.529-.153,3.179,3.179,0,0,1-3.386,2.989,3.09,3.09,0,0,1-3.143-2.835Z" transform="translate(-5.643 -0.19)" fill="#fff"/>
    <path id="패스_11535" data-name="패스 11535" d="M157.635,64.407c0,1.356-.344,3.943,1.936,3.943a2.03,2.03,0,0,0,1.622-.675,3.547,3.547,0,0,0,.484-2.343V60.34c0-1.447.069-2.342-1.208-3.3v-.093H165.2a4.791,4.791,0,0,0,2.349-.462h.1V67.735c.035,1.449-.1,2.343,1.176,3.3v.092h-7.154V69.494a5.726,5.726,0,0,1-4.731,2.033,6.48,6.48,0,0,1-3.9-1.17c-1.382-1.078-1.382-2.5-1.382-4.038V60.34c0-1.447.067-2.342-1.208-3.3v-.093h4.768a4.571,4.571,0,0,0,2.311-.462h.1v7.92Z" transform="translate(-16.787 -1.699)" fill="#fff"/>
    <path id="패스_11536" data-name="패스 11536" d="M187.2,60.418a5.245,5.245,0,0,0,.449-1.788,1.881,1.881,0,0,0-.828-1.509v-.093h5.08v.093l-6.495,15.224c-.829,2-1.417,3.328-3.663,4.408a12.818,12.818,0,0,1-5.182.861l-1.554-.09,2.731-3.085a2.907,2.907,0,0,0,.759.124c2.591,0,3.628-1.693,4.249-3.666a6.647,6.647,0,0,1-2.9-3.328l-3.595-7.642a5.891,5.891,0,0,0-2.212-2.806v-.093h7.6v.093a10.038,10.038,0,0,0,.655,1.664l.312.711,2.66,5.851,1.933-4.929Z" transform="translate(-21.998 -1.819)" fill="#fff"/>
    <path id="패스_11537" data-name="패스 11537" d="M138.809,56.93a8.3,8.3,0,0,0-5.285-1.975,5.481,5.481,0,0,0-1.589.187l-1.624,2.621c3.144.122,4.319,2.278,4.319,4.866,0,2.406-1.106,4.5-4.113,4.5a4.009,4.009,0,0,1-1.035-.153V48.794h-.1a4.2,4.2,0,0,1-2.486.491h-4.56v.093c1.278.988,1.14,1.881,1.174,3.3v3.48a8.007,8.007,0,0,0-3.84-1.014,7.432,7.432,0,0,0-7.633,7.579,7.358,7.358,0,0,0,7.6,7.244,3.633,3.633,0,0,0,1.416-.186l1.624-2.617h-.483a3.757,3.757,0,0,1-2.659-1.141,5.037,5.037,0,0,1-1.107-3.515c0-1.7.451-4.19,2.868-4.19a2.237,2.237,0,0,1,1.866.892,2.031,2.031,0,0,1,.35.8v6.716c0,1.049.035,1.635-.829,2.312v.094a38.121,38.121,0,0,0,7.5.832c2.763,0,5.493-.372,7.668-1.942a7.386,7.386,0,0,0,3.144-6.1,6.838,6.838,0,0,0-2.176-4.992Z" transform="translate(-8.301)" fill="#fff"/>
  </g>
</svg>
