<svg xmlns="http://www.w3.org/2000/svg" xmlns:xlink="http://www.w3.org/1999/xlink" width="21" height="21" viewBox="0 0 21 21">
  <defs>
    <clipPath id="clip-path">
      <rect id="사각형_5301" data-name="사각형 5301" width="21" height="21" transform="translate(340 828)" fill="none"/>
    </clipPath>
  </defs>
  <g id="그룹_13479" data-name="그룹 13479" transform="translate(-340 -828)">
    <path id="패스_11476" data-name="패스 11476" d="M21,3V6.165a1.754,1.754,0,0,0,1.886,1.582h3.771" transform="translate(330.946 828)" fill="none" stroke="#579ee5" stroke-width="2"/>
    <g id="마스크_그룹_9557" data-name="마스크 그룹 9557" clip-path="url(#clip-path)">
      <path id="패스_11475" data-name="패스 11475" d="M6,4.582V17.242a1.645,1.645,0,0,0,1.7,1.582H17.9a1.645,1.645,0,0,0,1.7-1.582V8.018a1.53,1.53,0,0,0-.512-1.131L15.316,3.451A1.768,1.768,0,0,0,14.128,3H7.7A1.645,1.645,0,0,0,6,4.582Z" transform="translate(338 828)" fill="none" stroke="#579ee5" stroke-width="2"/>
    </g>
  </g>
</svg>
