<svg xmlns="http://www.w3.org/2000/svg" xmlns:xlink="http://www.w3.org/1999/xlink" width="21" height="21" viewBox="0 0 21 21">
  <defs>
    <clipPath id="clip-path">
      <rect id="사각형_5300" data-name="사각형 5300" width="21" height="21" transform="translate(340 644)" fill="none"/>
    </clipPath>
  </defs>
  <g id="그룹_13478" data-name="그룹 13478" transform="translate(-340 -644)">
    <g id="마스크_그룹_9558" data-name="마스크 그룹 9558" clip-path="url(#clip-path)">
      <path id="Icon_core-flight-takeoff" data-name="Icon core-flight-takeoff" d="M.827,19.126H16.49V20.17H.827ZM15.175,8.95a3.922,3.922,0,0,0-2.285.042L12.861,9l-2.124,1.01-6.2-2.465a1.557,1.557,0,0,0-1.624.289l-.83.744A.783.783,0,0,0,2.153,9.8L6,12.526,4.522,13.3,3.355,12.231a1.569,1.569,0,0,0-1.68-.281l-.635.275a.783.783,0,0,0-.38,1.087l2.376,4.465L15.978,11.4c.775-.365.869-.948.7-1.373a2.158,2.158,0,0,0-1.5-1.076Zm.356,1.505,0,0L3.483,16.393,1.715,13.071l.375-.163A.523.523,0,0,1,2.65,13l1.708,1.56,3.633-1.9L3.024,9.139l.586-.526a.519.519,0,0,1,.541-.1l6.623,2.633,2.478-1.178a2.916,2.916,0,0,1,1.653-.013,1.621,1.621,0,0,1,.772.411.79.79,0,0,1-.148.086Z" transform="translate(341.932 641.066)" fill="#579ee5" stroke="#579ee5" stroke-width="0.3"/>
    </g>
  </g>
</svg>
