<svg xmlns="http://www.w3.org/2000/svg" xmlns:xlink="http://www.w3.org/1999/xlink" width="21" height="21" viewBox="0 0 21 21">
  <defs>
    <clipPath id="clip-path">
      <rect id="사각형_5304" data-name="사각형 5304" width="21" height="21" transform="translate(340 1355)" fill="none"/>
    </clipPath>
  </defs>
  <g id="그룹_13482" data-name="그룹 13482" transform="translate(-340 -1355)">
    <g id="마스크_그룹_9562" data-name="마스크 그룹 9562" clip-path="url(#clip-path)">
      <path id="Icon_core-badge" data-name="Icon core-badge" d="M14.987,15.26l.142,2.88-2.913-2.025-2.93,2.027.142-2.882H8.2l-.212,4.3H9.395l2.819-1.95,2.806,1.95h1.409l-.212-4.3Zm3.342-8.8-.084-1.845-1.556-1-1-1.556-1.845-.084-1.64-.85-1.64.85-1.845.084-1,1.556-1.556,1L6.085,6.463,5.236,8.1l.85,1.64.084,1.845,1.556,1,1,1.556,1.845.084,1.64.85,1.64-.85,1.845-.084,1-1.556,1.556-1,.084-1.845.85-1.64ZM17.114,9.418,17.046,10.9l-1.247.8L15,12.942l-1.479.068-1.315.681-1.315-.681-1.479-.068-.8-1.247-1.247-.8L7.3,9.418,6.62,8.1,7.3,6.789l.068-1.479,1.247-.8.8-1.247L10.893,3.2l1.315-.681,1.315.681L15,3.264l.8,1.247,1.247.8.068,1.479L17.795,8.1Z" transform="translate(338.262 1355.368)" fill="#579ee5" stroke="#579ee5" stroke-width="0.5"/>
    </g>
  </g>
</svg>
