<svg xmlns="http://www.w3.org/2000/svg" width="20.204" height="19.377" viewBox="0 0 20.204 19.377">
  <g id="Icon_feather-shopping-cart" data-name="Icon feather-shopping-cart" transform="translate(-0.5 -0.5)">
    <path id="패스_66" data-name="패스 66" d="M13.655,30.827A.827.827,0,1,1,12.827,30,.827.827,0,0,1,13.655,30.827Z" transform="translate(-4.708 -12.778)" fill="none" stroke="#fff" stroke-linecap="round" stroke-linejoin="round" stroke-width="2"/>
    <path id="패스_67" data-name="패스 67" d="M30.155,30.827A.827.827,0,1,1,29.327,30,.827.827,0,0,1,30.155,30.827Z" transform="translate(-12.106 -12.778)" fill="none" stroke="#fff" stroke-linecap="round" stroke-linejoin="round" stroke-width="2"/>
    <path id="패스_68" data-name="패스 68" d="M1.5,1.5H4.81L7.027,12.58a1.655,1.655,0,0,0,1.655,1.332h8.043A1.655,1.655,0,0,0,18.38,12.58L19.7,5.637H5.637" fill="none" stroke="#fff" stroke-linecap="round" stroke-linejoin="round" stroke-width="2"/>
  </g>
</svg>
