<svg xmlns="http://www.w3.org/2000/svg" width="37" height="37" viewBox="0 0 37 37">
    <g data-name="그룹 13237" transform="translate(-773 -791)">
        <circle data-name="타원 377" cx="18.5" cy="18.5" r="18.5" transform="translate(773 791)" style="fill:#f0f0f0"/>
        <path data-name="빼기 1" d="M3.5 1644.866a.161.161 0 0 1-.132-.059.421.421 0 0 1-.017-.352c.09-.361.516-1.953.721-2.718l.028-.1a7.944 7.944 0 0 1-2.97-2.435 5.76 5.76 0 0 1-1.13-3.375A6.159 6.159 0 0 1 2.529 1631a9.847 9.847 0 0 1 6.106-2 9.847 9.847 0 0 1 6.106 2 5.871 5.871 0 0 1 0 9.654 9.847 9.847 0 0 1-6.106 2 10.923 10.923 0 0 1-1.6-.118c-1.022.7-3.179 2.162-3.323 2.258a.4.4 0 0 1-.212.072zm8.621-11.129a.544.544 0 0 0-.431.161.2.2 0 0 0-.039.123c.007.272 0 2.327-.008 3.2v.45c.02.169.25.246.454.246a.572.572 0 0 0 .4-.125.2.2 0 0 0 .062-.144v-1.206l.268-.215 1.172 1.6v.005l.005.005a.238.238 0 0 0 .181.072.68.68 0 0 0 .441-.216.455.455 0 0 0 .154-.306.22.22 0 0 0-.046-.134l-1.244-1.639.059-.064c.117-.126.391-.421.65-.695.141-.149.336-.354.468-.485a.133.133 0 0 0 .038-.1.728.728 0 0 0-.541-.545.134.134 0 0 0-.1.038l-1.506 1.506s.012-.824 0-1.291c-.007-.16-.226-.241-.44-.241zm-6.082 3.358h1.623s-.05.039.16.6a.33.33 0 0 0 .233.21.449.449 0 0 0 .116.015.572.572 0 0 0 .456-.226.333.333 0 0 0 .04-.319c-.076-.2-.211-.566-.355-.954-.232-.628-.522-1.41-.716-1.915-.1-.259-.167-.427-.2-.5a.474.474 0 0 0-.276-.212.9.9 0 0 0-.306-.054.511.511 0 0 0-.5.267c-.11.242-.358.921-.621 1.641-.255.7-.519 1.418-.649 1.718a.319.319 0 0 0 .029.314.58.58 0 0 0 .465.241.33.33 0 0 0 .324-.2l.178-.622zm3.423-3.359a.528.528 0 0 0-.374.139.371.371 0 0 0-.107.269v3.265a.555.555 0 0 0 .091.389.33.33 0 0 0 .262.106h1.793c.208-.007.3-.235.3-.444s-.1-.445-.314-.445H9.937v-2.864a.411.411 0 0 0-.391-.4.621.621 0 0 0-.087-.015zm-6.849-.018a.365.365 0 0 0-.295.135.485.485 0 0 0-.084.4.381.381 0 0 0 .38.318H3.5v3.01c0 .184.18.279.348.305a.771.771 0 0 0 .119.009.547.547 0 0 0 .381-.128.246.246 0 0 0 .075-.18v-2.984h.885a.435.435 0 0 0 0-.869c-.516 0-2.038-.012-2.669-.017zm4.75 2.56H6.329l.536-1.549.495 1.548z" transform="translate(783 -827)" style="fill:#371c1d;stroke:transparent;stroke-miterlimit:10"/>
    </g>
</svg>
