<svg xmlns="http://www.w3.org/2000/svg" xmlns:xlink="http://www.w3.org/1999/xlink" width="26" height="26" viewBox="0 0 26 26">
  <defs>
    <clipPath id="clip-path">
      <rect id="사각형_3292" data-name="사각형 3292" width="26" height="26" transform="translate(1506.999 252)" fill="none"/>
    </clipPath>
  </defs>
  <g id="마스크_그룹_9655" data-name="마스크 그룹 9655" transform="translate(-1506.999 -252)" clip-path="url(#clip-path)">
    <g id="그룹_12120" data-name="그룹 12120" transform="translate(1511.31 255.602)">
      <path id="패스_10691" data-name="패스 10691" d="M12.822,13.031a.488.488,0,0,0-.481.495v1.979A1.466,1.466,0,0,1,10.9,16.99H2.4A1.466,1.466,0,0,1,.962,15.506V2.474A1.466,1.466,0,0,1,2.4.99H10.9a1.466,1.466,0,0,1,1.442,1.485V4.454a.481.481,0,1,0,.962,0V2.474A2.442,2.442,0,0,0,10.9,0H2.4A2.443,2.443,0,0,0,0,2.474V15.506A2.443,2.443,0,0,0,2.4,17.98H10.9a2.442,2.442,0,0,0,2.4-2.474V13.526a.488.488,0,0,0-.481-.495" fill="#333" stroke="#333" stroke-width="0.4"/>
      <path id="패스_10692" data-name="패스 10692" d="M22.36,16.026l-2.885-2.885a.481.481,0,0,0-.68.68l2.064,2.064H10.481a.481.481,0,0,0,0,.962H20.859L18.8,18.91a.481.481,0,1,0,.68.68l2.885-2.885a.48.48,0,0,0,0-.68" transform="translate(-4.31 -7.376)" fill="#666" stroke="#666" stroke-width="0.2"/>
    </g>
  </g>
</svg>
