<svg xmlns="http://www.w3.org/2000/svg" width="130.499" height="37.632" viewBox="0 0 130.499 37.632">
  <g id="그룹_13232" data-name="그룹 13232" transform="translate(-73.954 -48.294)">
    <path id="패스_11533" data-name="패스 11533" d="M88.422,51.035c2.483,0,4.546,0,6.514,1.383,1.92,1.335,3.139,3.009,3.139,5.184,0,2.8-2.154,4.472-4.97,5.307a7.286,7.286,0,0,1,6.75,7.152,7.936,7.936,0,0,1-3.325,6.478C94,78.5,91.515,78.546,88.188,78.546H74.454v-.127c2.3-1.294,1.967-3.636,1.967-5.85v-15.6c0-2.174.33-4.555-1.967-5.811v-.126H88.422M85.095,61.572a3.254,3.254,0,0,0,.889.166,3.4,3.4,0,0,0,3.423-3.6,2.944,2.944,0,0,0-2.954-3.219,3.9,3.9,0,0,0-1.357.253v6.4m0,12.54a3.486,3.486,0,0,0,2.06.5c3.048,0,4.267-2.259,4.267-4.682,0-3.178-1.642-4.6-5.2-4.6H85.095v8.777Z" transform="translate(0 0.128)" stroke="rgba(0,0,0,0)" stroke-width="1"/>
    <path id="패스_11534" data-name="패스 11534" d="M106.421,58.476a6.3,6.3,0,0,0,3.188-.627h.142v15.26c0,1.925-.142,3.137,1.637,4.474v.125H100v-.125c1.781-1.337,1.642-2.55,1.642-4.474V63.075c0-1.963.14-3.177-1.594-4.473v-.126h6.374m-5.436-4.682a4.45,4.45,0,0,1,8.858-.208,4.313,4.313,0,0,1-4.594,4.055,4.192,4.192,0,0,1-4.264-3.846Z" transform="translate(1.456 0.049)" fill="#82c2bd" stroke="rgba(0,0,0,0)" stroke-width="1"/>
    <path id="패스_11535" data-name="패스 11535" d="M160.2,67.233c0,1.84-.467,5.35,2.627,5.35a2.753,2.753,0,0,0,2.2-.916,4.812,4.812,0,0,0,.656-3.178V61.714c0-1.963.094-3.177-1.639-4.474v-.126h6.421a6.5,6.5,0,0,0,3.187-.627h.142v15.26c.048,1.966-.142,3.178,1.6,4.474v.125h-9.705V74.133a7.769,7.769,0,0,1-6.418,2.758,8.792,8.792,0,0,1-5.3-1.588c-1.875-1.462-1.875-3.389-1.875-5.479v-8.11c0-1.963.091-3.177-1.638-4.474v-.126h6.469a6.2,6.2,0,0,0,3.135-.627h.142V67.233Z" transform="translate(4.333 0.439)" stroke="rgba(0,0,0,0)" stroke-width="1"/>
    <path id="패스_11536" data-name="패스 11536" d="M191.9,61.627a7.115,7.115,0,0,0,.609-2.426,2.552,2.552,0,0,0-1.124-2.047v-.126h6.892v.126l-8.811,20.654c-1.125,2.718-1.923,4.516-4.97,5.981a17.39,17.39,0,0,1-7.03,1.168l-2.109-.123,3.7-4.185a3.943,3.943,0,0,0,1.03.168c3.515,0,4.921-2.3,5.765-4.974a9.017,9.017,0,0,1-3.934-4.516L177.043,60.96a7.992,7.992,0,0,0-3-3.806v-.126h10.313v.126a13.617,13.617,0,0,0,.889,2.258l.423.964,3.609,7.938,2.622-6.687Z" transform="translate(5.678 0.469)" stroke="rgba(0,0,0,0)" stroke-width="1"/>
    <path id="패스_11537" data-name="패스 11537" d="M148.361,59.832a11.26,11.26,0,0,0-7.171-2.68,7.436,7.436,0,0,0-2.155.254l-2.2,3.556c4.265.165,5.859,3.091,5.859,6.6,0,3.264-1.5,6.106-5.58,6.106a5.439,5.439,0,0,1-1.4-.208V48.794h-.142a5.7,5.7,0,0,1-3.373.666H126v.127c1.734,1.34,1.546,2.552,1.593,4.474v4.722a10.863,10.863,0,0,0-5.21-1.376,10.082,10.082,0,0,0-10.356,10.283,9.982,9.982,0,0,0,10.31,9.828,4.929,4.929,0,0,0,1.921-.253l2.2-3.55h-.655a5.1,5.1,0,0,1-3.608-1.547,6.833,6.833,0,0,1-1.5-4.768c0-2.3.612-5.685,3.891-5.685a3.035,3.035,0,0,1,2.532,1.21,2.755,2.755,0,0,1,.475,1.089v9.111c0,1.424.048,2.218-1.125,3.136v.128a51.719,51.719,0,0,0,10.171,1.129c3.748,0,7.452-.505,10.4-2.635a10.02,10.02,0,0,0,4.266-8.277,9.277,9.277,0,0,0-2.952-6.772Z" transform="translate(2.142)" stroke="rgba(0,0,0,0)" stroke-width="1"/>
  </g>
</svg>
