<svg xmlns="http://www.w3.org/2000/svg" xmlns:xlink="http://www.w3.org/1999/xlink" width="20" height="20" viewBox="0 0 20 20">
  <defs>
    <clipPath id="clip-path">
      <rect id="사각형_5680" data-name="사각형 5680" width="20" height="20" transform="translate(764 1601)" fill="none" stroke="#82c2bd" stroke-width="1"/>
    </clipPath>
  </defs>
  <g id="마스크_그룹_9624" data-name="마스크 그룹 9624" transform="translate(-764 -1601)" clip-path="url(#clip-path)">
    <g id="Icon_ionic-ios-sync" data-name="Icon ionic-ios-sync" transform="translate(765 1603)">
      <path id="패스_11672" data-name="패스 11672" d="M21.29,11.493a.519.519,0,0,0-.737,0l-.5.5a7.887,7.887,0,0,0-2.505-6.33A7.826,7.826,0,0,0,6.674,5.9,7.9,7.9,0,0,0,5.385,7.622a.55.55,0,0,0-.046.426.543.543,0,0,0,.276.326.549.549,0,0,0,.246.058.542.542,0,0,0,.476-.28,6.733,6.733,0,0,1,10.673-1.5,6.765,6.765,0,0,1,1.934,5.532l-.725-.71a.509.509,0,0,0-.717,0,.509.509,0,0,0,0,.721l1.642,1.646a.38.38,0,0,0,.537,0l1.615-1.619A.525.525,0,0,0,21.29,11.493Z" transform="translate(-3.03 -3.586)" fill="#82c2bd" stroke="#82c2bd" stroke-width="0.5"/>
      <path id="패스_11673" data-name="패스 11673" d="M16.955,18.966a.549.549,0,0,0-.246-.058.542.542,0,0,0-.476.28,6.742,6.742,0,0,1-10.677,1.5,6.806,6.806,0,0,1-1.93-5.521l.706.71a.491.491,0,0,0,.691,0l.05-.05a.489.489,0,0,0,0-.687l-1.646-1.65a.38.38,0,0,0-.537,0L1.279,15.115a.521.521,0,1,0,.737.737l.5-.5a7.984,7.984,0,0,0,.345,2.935,7.829,7.829,0,0,0,7.473,5.482,7.845,7.845,0,0,0,2.95-.575,7.749,7.749,0,0,0,2.593-1.73,7.834,7.834,0,0,0,1.312-1.742.54.54,0,0,0-.234-.752Z" transform="translate(-1.127 -8.036)" fill="#82c2bd" stroke="#82c2bd" stroke-width="0.5"/>
    </g>
  </g>
</svg>
