<svg id="icon_알림_24" xmlns="http://www.w3.org/2000/svg" width="20" height="20" viewBox="0 0 20 20">
  <rect id="사각형_1593" data-name="사각형 1593" width="20" height="20" fill="none"/>
  <g id="그룹_6967" data-name="그룹 6967" transform="translate(0.485 3.17)">
    <path id="패스_4071" data-name="패스 4071" d="M18.465,2H4.309a.615.615,0,0,0-.616.616V5.693H.616A.615.615,0,0,0,0,6.309v8.617a2.465,2.465,0,0,0,2.462,2.462H16a3.081,3.081,0,0,0,3.078-3.078V2.616A.615.615,0,0,0,18.465,2M1.231,14.926v-8H3.693v8a1.231,1.231,0,1,1-2.462,0M17.85,14.31A1.849,1.849,0,0,1,16,16.157H4.581a2.431,2.431,0,0,0,.343-1.231V3.231H17.85Z" transform="translate(0 -2)"/>
    <path id="패스_4072" data-name="패스 4072" d="M12.616,7.231h8a.616.616,0,0,0,0-1.231h-8a.616.616,0,0,0,0,1.231" transform="translate(-5.23 -2.922)"/>
    <path id="패스_4073" data-name="패스 4073" d="M12.616,13.231h8a.616.616,0,0,0,0-1.231h-8a.616.616,0,0,0,0,1.231" transform="translate(-5.23 -5.844)"/>
    <path id="패스_4074" data-name="패스 4074" d="M12.616,19.231h8a.616.616,0,0,0,0-1.231h-8a.616.616,0,0,0,0,1.231" transform="translate(-5.23 -8.768)"/>
  </g>
</svg>
