<svg width="40.000000" height="40.000000" viewBox="0 0 40 40" fill="none" xmlns="http://www.w3.org/2000/svg" xmlns:xlink="http://www.w3.org/1999/xlink">
	<desc>
			Created with Pixso.
	</desc>
	<defs/>
	<g style="mix-blend-mode:normal">
		<rect id="사각형 5256" rx="4.000000" width="40.000000" height="40.000000" fill="#FFFFFF" fill-opacity="1.000000"/>
		<rect id="사각형 5256" x="0.500000" y="0.500000" rx="4.000000" width="39.000000" height="39.000000" stroke="#D8D8D8" stroke-opacity="1.000000" stroke-width="1.000000"/>
	</g>
	<g style="mix-blend-mode:normal">
		<path id="패스 15" d="M26.44 19.22C26.44 23.21 23.21 26.44 19.22 26.44C15.23 26.44 12 23.21 12 19.22C12 15.23 15.23 12 19.22 12C23.21 12 26.44 15.23 26.44 19.22Z" fill="#000000" fill-opacity="0" fill-rule="nonzero"/>
		<path id="패스 15" d="M19.22 26.44C15.23 26.44 12 23.21 12 19.22C12 15.23 15.23 12 19.22 12C23.21 12 26.44 15.23 26.44 19.22C26.44 23.21 23.21 26.44 19.22 26.44Z" stroke="#000000" stroke-opacity="1.000000" stroke-width="2.000000" stroke-linejoin="round"/>
	</g>
	<g style="mix-blend-mode:normal">
		<path id="패스 16" d="" fill="#000000" fill-opacity="0" fill-rule="nonzero"/>
		<path id="패스 16" d="M28.25 28.25L24.32 24.32" stroke="#000000" stroke-opacity="1.000000" stroke-width="2.000000" stroke-linejoin="round"/>
	</g>
</svg>
