<svg id="icon_search_24" xmlns="http://www.w3.org/2000/svg" width="28" height="28" viewBox="0 0 28 28">
  <rect id="사각형_1593" data-name="사각형 1593" width="28" height="28" fill="none"/>
  <g id="그룹_6965" data-name="그룹 6965" transform="translate(1.651 1.787)">
    <path id="Vector" d="M11.149,22.3A11.149,11.149,0,1,1,22.3,11.149,11.161,11.161,0,0,1,11.149,22.3Zm0-20.666a9.517,9.517,0,1,0,9.517,9.517A9.528,9.528,0,0,0,11.149,1.632Z" transform="translate(0 0)" fill="#fff"/>
    <path id="Vector-2" data-name="Vector" d="M1.99,3.4-2.988-1.525a.889.889,0,0,1,0-1.249.889.889,0,0,1,1.249,0L3.239,2.153a.889.889,0,0,1,0,1.249.882.882,0,0,1-1.249,0Z" transform="translate(20.761 20.764)" fill="#fff"/>
  </g>
</svg>
