<svg xmlns="http://www.w3.org/2000/svg" width="16" height="16" viewBox="0 0 16 16">
  <g id="그룹_13497" data-name="그룹 13497" transform="translate(-1370.003 -781)">
    <rect id="사각형_1593" data-name="사각형 1593" width="16" height="16" transform="translate(1370.003 781)" fill="none"/>
    <g id="그룹_13417" data-name="그룹 13417">
      <path id="Vector" d="M5.149,10.3A5.149,5.149,0,1,1,10.3,5.149,5.155,5.155,0,0,1,5.149,10.3Zm0-9.544a4.4,4.4,0,1,0,4.4,4.4A4.4,4.4,0,0,0,5.149.754Z" transform="translate(1371.654 782.787)" fill="#666" stroke="#666" stroke-width="0.2"/>
      <path id="Vector-2" data-name="Vector" d="M.022.983-3.084-2.09a.555.555,0,0,1,0-.779.555.555,0,0,1,.779,0L.8.2A.555.555,0,0,1,.8.983a.55.55,0,0,1-.779,0Z" transform="translate(1382.949 794.067)" fill="#666" stroke="#666" stroke-width="0.2"/>
    </g>
  </g>
</svg>
