<svg width="15.877930" height="15.877747" viewBox="0 0 15.8779 15.8777" fill="none" xmlns="http://www.w3.org/2000/svg" xmlns:xlink="http://www.w3.org/1999/xlink">
	<desc>
			Created with Pixso.
	</desc>
	<defs/>
	<g style="mix-blend-mode:normal">
		<path id="Icon material-language" d="M7.93 0.35C3.74 0.35 0.35 3.74 0.35 7.93C0.35 12.12 3.74 15.52 7.93 15.52C12.12 15.52 15.52 12.12 15.52 7.93C15.52 3.74 12.12 0.35 7.93 0.35ZM13.19 4.9L10.95 4.9C10.71 3.96 10.36 3.05 9.9 2.2C11.28 2.67 12.45 3.63 13.19 4.9ZM7.93 1.89C8.56 2.8 9.06 3.81 9.38 4.9L6.48 4.9C6.81 3.81 7.3 2.8 7.93 1.89ZM2.06 9.45C1.94 8.97 1.86 8.46 1.86 7.93C1.86 7.41 1.94 6.9 2.06 6.42L4.63 6.42C4.56 6.92 4.52 7.42 4.52 7.93C4.52 8.45 4.56 8.95 4.63 9.45L2.06 9.45ZM2.68 10.97L4.92 10.97C5.16 11.92 5.51 12.83 5.97 13.67C4.58 13.2 3.42 12.24 2.68 10.97ZM4.92 4.9L2.68 4.9C3.42 3.63 4.58 2.67 5.97 2.2C5.51 3.05 5.16 3.96 4.92 4.9ZM7.93 13.97C7.3 13.06 6.81 12.05 6.48 10.97L9.38 10.97C9.06 12.05 8.56 13.06 7.93 13.97ZM9.71 9.45L6.16 9.45C6.09 8.95 6.04 8.45 6.04 7.93C6.04 7.42 6.09 6.91 6.16 6.42L9.71 6.42C9.78 6.91 9.83 7.42 9.83 7.93C9.83 8.45 9.78 8.95 9.71 9.45ZM9.9 13.67C10.35 12.83 10.7 11.92 10.95 10.97L13.19 10.97C12.45 12.24 11.28 13.19 9.9 13.67ZM11.24 9.45C11.3 8.95 11.35 8.45 11.35 7.93C11.35 7.42 11.3 6.92 11.24 6.42L13.81 6.42C13.93 6.9 14.01 7.41 14.01 7.93C14.01 8.46 13.93 8.97 13.81 9.45L11.24 9.45Z" fill="#666666" fill-opacity="1.000000" fill-rule="nonzero"/>
		<path id="Icon material-language" d="M0.35 7.93C0.35 12.12 3.74 15.52 7.93 15.52C12.12 15.52 15.52 12.12 15.52 7.93C15.52 3.74 12.12 0.35 7.93 0.35C3.74 0.35 0.35 3.74 0.35 7.93ZM10.95 4.9C10.71 3.96 10.36 3.05 9.9 2.2C11.28 2.67 12.45 3.63 13.19 4.9L10.95 4.9ZM9.38 4.9L6.48 4.9C6.81 3.81 7.3 2.8 7.93 1.89C8.56 2.8 9.06 3.81 9.38 4.9ZM1.86 7.93C1.86 7.41 1.94 6.9 2.06 6.42L4.63 6.42C4.56 6.92 4.52 7.42 4.52 7.93C4.52 8.45 4.56 8.95 4.63 9.45L2.06 9.45C1.94 8.97 1.86 8.46 1.86 7.93ZM4.92 10.97C5.16 11.92 5.51 12.83 5.97 13.67C4.58 13.2 3.42 12.24 2.68 10.97L4.92 10.97ZM2.68 4.9C3.42 3.63 4.58 2.67 5.97 2.2C5.51 3.05 5.16 3.96 4.92 4.9L2.68 4.9ZM6.48 10.97L9.38 10.97C9.06 12.05 8.56 13.06 7.93 13.97C7.3 13.06 6.81 12.05 6.48 10.97ZM6.16 9.45C6.09 8.95 6.04 8.45 6.04 7.93C6.04 7.42 6.09 6.91 6.16 6.42L9.71 6.42C9.78 6.91 9.83 7.42 9.83 7.93C9.83 8.45 9.78 8.95 9.71 9.45L6.16 9.45ZM10.95 10.97L13.19 10.97C12.45 12.24 11.28 13.19 9.9 13.67C10.35 12.83 10.7 11.92 10.95 10.97ZM11.35 7.93C11.35 7.42 11.3 6.92 11.24 6.42L13.81 6.42C13.93 6.9 14.01 7.41 14.01 7.93C14.01 8.46 13.93 8.97 13.81 9.45L11.24 9.45C11.3 8.95 11.35 8.45 11.35 7.93Z" stroke="#FFFFFF" stroke-opacity="1.000000" stroke-width="0.700000"/>
	</g>
</svg>
