<svg xmlns="http://www.w3.org/2000/svg" xmlns:xlink="http://www.w3.org/1999/xlink" width="47" height="47" viewBox="0 0 47 47">
  <defs>
    <clipPath id="clip-path">
      <rect id="사각형_3" data-name="사각형 3" width="47" height="47" transform="translate(1553 37)" fill="#fff" stroke="#707070" stroke-width="1"/>
    </clipPath>
  </defs>
  <g id="마스크_그룹_9651" data-name="마스크 그룹 9651" transform="translate(-1553 -37)" clip-path="url(#clip-path)">
    <g id="Icon_feather-shopping-cart" data-name="Icon feather-shopping-cart" transform="translate(1558.064 46.876)">
      <path id="패스_62" data-name="패스 62" d="M14.625,31.312A1.312,1.312,0,1,1,13.312,30,1.312,1.312,0,0,1,14.625,31.312Z" transform="translate(-1.314 -3.565)" fill="none" stroke="#000" stroke-linecap="round" stroke-linejoin="round" stroke-width="2"/>
      <path id="패스_63" data-name="패스 63" d="M31.125,31.312A1.312,1.312,0,1,1,29.812,30,1.312,1.312,0,0,1,31.125,31.312Z" transform="translate(-3.378 -3.565)" fill="none" stroke="#000" stroke-linecap="round" stroke-linejoin="round" stroke-width="2"/>
      <path id="패스_64" data-name="패스 64" d="M1.5,1.5H6.749l3.517,17.572a2.625,2.625,0,0,0,2.625,2.113H25.647a2.625,2.625,0,0,0,2.625-2.113l2.1-11.011H8.062" fill="none" stroke="#000" stroke-linecap="round" stroke-linejoin="round" stroke-width="2"/>
    </g>
  </g>
</svg>
