<svg xmlns="http://www.w3.org/2000/svg" xmlns:xlink="http://www.w3.org/1999/xlink" width="47" height="47" viewBox="0 0 47 47">
  <defs>
    <clipPath id="clip-path">
      <rect id="사각형_3" data-name="사각형 3" width="47" height="47" transform="translate(1491 37)" fill="#fff" stroke="#707070" stroke-width="1"/>
    </clipPath>
  </defs>
  <g id="마스크_그룹_9650" data-name="마스크 그룹 9650" transform="translate(-1491 -37)" clip-path="url(#clip-path)">
    <g id="Icon_akar-bell" data-name="Icon akar-bell" transform="translate(1503 46.372)">
      <path id="패스_60" data-name="패스 60" d="M19.5,7.5l-2.269,0a9.661,9.661,0,0,0-9.7,9.287v5.866A6.092,6.092,0,0,1,6.7,26.085l-.444.678a1.548,1.548,0,0,0,1.266,2.405H29.24a1.548,1.548,0,0,0,1.266-2.405l-.444-.678a6.11,6.11,0,0,1-.822-3.434V16.788A9.725,9.725,0,0,0,19.5,7.5Zm3.527,21.664a4.643,4.643,0,1,1-9.287,0" transform="translate(-5.999 -2.857)" fill="none" stroke="#000" stroke-linecap="round" stroke-linejoin="round" stroke-width="2"/>
      <path id="패스_61" data-name="패스 61" d="M18.1,3a3.1,3.1,0,0,1,3.1,3.1V7.643H15V6.1A3.1,3.1,0,0,1,18.1,3Z" transform="translate(-5.713 -3)" fill="none" stroke="#000" stroke-linecap="round" stroke-linejoin="round" stroke-width="2"/>
    </g>
  </g>
</svg>
