<svg width="47.000000" height="47.000000" viewBox="0 0 47 47" fill="none" xmlns="http://www.w3.org/2000/svg" xmlns:xlink="http://www.w3.org/1999/xlink">
	<desc>
			Created with Pixso.
	</desc>
	<defs/>
	<mask id="mask1_379" mask-type="alpha" maskUnits="userSpaceOnUse" x="0.000000" y="0.000000" width="47.000000" height="47.000000">
		<g style="mix-blend-mode:normal">
			<rect id="사각형 5868" width="47.000000" height="47.000000" fill="#FFFFFF" fill-opacity="1.000000"/>
			<rect id="사각형 5868" x="0.500000" y="0.500000" width="46.000000" height="46.000000" stroke="#707070" stroke-opacity="1.000000" stroke-width="1.000000"/>
		</g>
	</mask>
	<g mask="url(#mask1_379)">
		<g style="mix-blend-mode:normal">
			<path id="패스 11722" d="M25.49 14.02L23.22 14.01C18.05 14 13.56 18.2 13.52 23.3L13.52 29.16C13.52 30.39 13.36 31.58 12.7 32.6L12.25 33.27C11.58 34.3 12.3 35.68 13.52 35.68L35.23 35.68C36.45 35.68 37.18 34.3 36.5 33.27L36.06 32.6C35.39 31.58 35.23 30.38 35.23 29.16L35.23 23.3C35.17 18.2 30.67 14.03 25.49 14.02Z" fill="#000000" fill-opacity="0" fill-rule="nonzero"/>
			<path id="패스 11722" d="M23.22 14.01C18.05 14 13.56 18.2 13.52 23.3L13.52 29.16C13.52 30.39 13.36 31.58 12.7 32.6L12.25 33.27C11.58 34.3 12.3 35.68 13.52 35.68L35.23 35.68C36.45 35.68 37.18 34.3 36.5 33.27L36.06 32.6C35.39 31.58 35.23 30.38 35.23 29.16L35.23 23.3C35.17 18.2 30.67 14.03 25.49 14.02L23.22 14.01ZM29.02 35.68C29.02 38.24 26.94 40.32 24.38 40.32C21.81 40.32 19.73 38.24 19.73 35.68" stroke="#FFFFFF" stroke-opacity="1.000000" stroke-width="2.000000" stroke-linejoin="round"/>
		</g>
	</g>
</svg>
