<svg width="20.000000" height="20.000000" viewBox="0 0 20 20" fill="none" xmlns="http://www.w3.org/2000/svg" xmlns:xlink="http://www.w3.org/1999/xlink">
	<desc>
			Created with Pixso.
	</desc>
	<defs/>
	<rect id="icon / 20x20 / icon_arrow_right_20" width="20.000000" height="20.000000" fill="#FFFFFF" fill-opacity="0"/>
	<g style="mix-blend-mode:normal">
		<rect id="사각형 1624" y="20.000000" width="20.000000" height="20.000000" transform="rotate(-90 0.000000 20.000000)" fill="#EAEAEA" fill-opacity="0"/>
		<rect id="사각형 1624" x="0.500000" y="19.500000" width="19.000000" height="19.000000" transform="rotate(-90 0.500000 19.500000)" stroke="#707070" stroke-opacity="0" stroke-width="1.000000"/>
	</g>
	<g style="mix-blend-mode:normal">
		<path id="패스 2953" d="M9.56 13.9L4.13 8.47C3.67 8.02 3.67 7.28 4.13 6.82C4.59 6.36 5.32 6.36 5.78 6.82L11.21 12.25C11.66 12.7 11.66 13.44 11.21 13.9C10.75 14.35 10.01 14.35 9.56 13.9Z" fill="#B7B7B7" fill-opacity="1.000000" fill-rule="nonzero"/>
		<path id="패스 2953" d="" fill="#707070" fill-opacity="0" fill-rule="evenodd"/>
	</g>
	<g style="mix-blend-mode:normal">
		<path id="패스 2954" d="M9.59 12.25L15.02 6.82C15.47 6.37 16.21 6.37 16.67 6.82C17.12 7.28 17.12 8.02 16.67 8.47L11.24 13.9C10.79 14.36 10.05 14.36 9.59 13.9C9.14 13.44 9.14 12.7 9.59 12.25Z" fill="#B7B7B7" fill-opacity="1.000000" fill-rule="nonzero"/>
		<path id="패스 2954" d="" fill="#707070" fill-opacity="0" fill-rule="evenodd"/>
	</g>
</svg>
