<svg width="11.113770" height="9.769531" viewBox="0 0 11.1138 9.76953" fill="none" xmlns="http://www.w3.org/2000/svg" xmlns:xlink="http://www.w3.org/1999/xlink">
	<desc>
			Created with Pixso.
	</desc>
	<defs/>
	<g style="mix-blend-mode:normal">
		<mask id="mask_1_338" fill="white">
			<path id="합치기 2" d="M3.94141 4.88354L0.274414 1.47266C-0.0878906 1.13574 -0.0878906 0.5896 0.274414 0.252686C0.636719 -0.0842285 1.22363 -0.0842285 1.58594 0.252686L5.896 4.26147C6.10205 4.45288 6.19092 4.71216 6.1626 4.96191C6.14697 5.16089 6.05713 5.35596 5.89355 5.5083L1.5835 9.51685C1.22119 9.85376 0.633789 9.85376 0.271484 9.51685C-0.0908203 9.17993 -0.0908203 8.63379 0.271484 8.29688L3.94141 4.88354Z" clip-rule="evenodd" fill="" fill-opacity="1.000000" fill-rule="evenodd"/>
		</mask>
		<path id="합치기 2" d="M3.94141 4.88354L0.274414 1.47266C-0.0878906 1.13574 -0.0878906 0.5896 0.274414 0.252686C0.636719 -0.0842285 1.22363 -0.0842285 1.58594 0.252686L5.896 4.26147C6.10205 4.45288 6.19092 4.71216 6.1626 4.96191C6.14697 5.16089 6.05713 5.35596 5.89355 5.5083L1.5835 9.51685C1.22119 9.85376 0.633789 9.85376 0.271484 9.51685C-0.0908203 9.17993 -0.0908203 8.63379 0.271484 8.29688L3.94141 4.88354Z" clip-rule="evenodd" fill="#D3D3D3" fill-opacity="1.000000" fill-rule="evenodd" mask="url(#mask_1_338)"/>
		<path id="합치기 2" d="" clip-rule="evenodd" fill="#707070" fill-opacity="0.000000" fill-rule="evenodd"/>
	</g>
	<g style="mix-blend-mode:normal">
		<mask id="mask_1_339" fill="white">
			<path id="합치기 3" d="M8.88721 4.88354L5.22021 1.47266C4.85791 1.13574 4.85791 0.5896 5.22021 0.252686C5.58203 -0.0842285 6.16943 -0.0842285 6.53174 0.252686L10.8418 4.26147C11.0479 4.45288 11.1367 4.71216 11.1084 4.96191C11.0928 5.16089 11.0029 5.35596 10.8394 5.5083L6.5293 9.51685C6.16699 9.85376 5.57959 9.85376 5.21777 9.51685C4.85547 9.17993 4.85547 8.63379 5.21777 8.29688L8.88721 4.88354Z" clip-rule="evenodd" fill="" fill-opacity="1.000000" fill-rule="evenodd"/>
		</mask>
		<path id="합치기 3" d="M8.88721 4.88354L5.22021 1.47266C4.85791 1.13574 4.85791 0.5896 5.22021 0.252686C5.58203 -0.0842285 6.16943 -0.0842285 6.53174 0.252686L10.8418 4.26147C11.0479 4.45288 11.1367 4.71216 11.1084 4.96191C11.0928 5.16089 11.0029 5.35596 10.8394 5.5083L6.5293 9.51685C6.16699 9.85376 5.57959 9.85376 5.21777 9.51685C4.85547 9.17993 4.85547 8.63379 5.21777 8.29688L8.88721 4.88354Z" clip-rule="evenodd" fill="#D3D3D3" fill-opacity="1.000000" fill-rule="evenodd" mask="url(#mask_1_339)"/>
		<path id="합치기 3" d="" clip-rule="evenodd" fill="#707070" fill-opacity="0.000000" fill-rule="evenodd"/>
	</g>
</svg>
