<svg width="47.000000" height="47.000000" viewBox="0 0 47 47" fill="none" xmlns="http://www.w3.org/2000/svg" xmlns:xlink="http://www.w3.org/1999/xlink">
	<desc>
			Created with Pixso.
	</desc>
	<defs/>
	<mask id="mask1_376" mask-type="alpha" maskUnits="userSpaceOnUse" x="0.000000" y="0.000000" width="47.000000" height="47.000000">
		<g style="mix-blend-mode:normal">
			<rect id="사각형 5867" width="47.000000" height="47.000000" fill="#FFFFFF" fill-opacity="1.000000"/>
			<rect id="사각형 5867" x="0.500000" y="0.500000" width="46.000000" height="46.000000" stroke="#707070" stroke-opacity="1.000000" stroke-width="1.000000"/>
		</g>
	</mask>
	<g mask="url(#mask1_376)">
		<g style="mix-blend-mode:normal">
			<path id="Icon material-person-outline" d="M22.39 11.79C24.71 11.79 26.59 13.67 26.59 15.98C26.59 18.3 24.71 20.18 22.39 20.18C20.08 20.18 18.2 18.3 18.2 15.98C18.2 13.67 20.08 11.79 22.39 11.79ZM22.39 29.76C28.33 29.76 34.58 32.68 34.58 33.96L34.58 36.16L10.21 36.16L10.21 33.96C10.21 32.68 16.46 29.76 22.39 29.76ZM22.39 8C17.98 8 14.4 11.57 14.4 15.98C14.4 20.4 17.98 23.97 22.39 23.97C26.81 23.97 30.38 20.4 30.38 15.98C30.38 11.57 26.81 8 22.39 8ZM22.39 25.97C17.06 25.97 6.42 28.65 6.42 33.96L6.42 39.95L38.37 39.95L38.37 33.96C38.37 28.65 27.73 25.97 22.39 25.97Z" fill="#FFFFFF" fill-opacity="1.000000" fill-rule="nonzero"/>
			<path id="Icon material-person-outline" d="M26.59 15.98C26.59 18.3 24.71 20.18 22.39 20.18C20.08 20.18 18.2 18.3 18.2 15.98C18.2 13.67 20.08 11.79 22.39 11.79C24.71 11.79 26.59 13.67 26.59 15.98ZM34.58 33.96L34.58 36.16L10.21 36.16L10.21 33.96C10.21 32.68 16.46 29.76 22.39 29.76C28.33 29.76 34.58 32.68 34.58 33.96ZM14.4 15.98C14.4 20.4 17.98 23.97 22.39 23.97C26.81 23.97 30.38 20.4 30.38 15.98C30.38 11.57 26.81 8 22.39 8C17.98 8 14.4 11.57 14.4 15.98ZM6.42 33.96L6.42 39.95L38.37 39.95L38.37 33.96C38.37 28.65 27.73 25.97 22.39 25.97C17.06 25.97 6.42 28.65 6.42 33.96Z" stroke="#82C2BD" stroke-opacity="1.000000" stroke-width="1.600000"/>
		</g>
	</g>
</svg>
